<?xml version="1.0" encoding="utf-8"?>
<!-- Generator: Adobe Illustrator 22.0.1, SVG Export Plug-In . SVG Version: 6.00 Build 0)  -->
<svg version="1.1" id="Layer_1" xmlns="http://www.w3.org/2000/svg" xmlns:xlink="http://www.w3.org/1999/xlink" x="0px" y="0px"
	 viewBox="0 0 579.6 200.9" style="enable-background:new 0 0 579.6 200.9;" xml:space="preserve">
<style type="text/css">
	.st0{fill:#00A5FF;}
	.st1{font-family:'Roboto-Bold';}
	.st2{font-size:65px;}
	.st3{fill:#98CFFF;}
	.st4{font-size:50px;}
	.st5{font-size:43px;}
	.st6{font-size:38px;}
	.st7{fill:#00D0FF;}
	.st8{font-size:33px;}
	.st9{fill:#2A3E52;}
	.st10{fill:#006ECE;}
	.st11{font-size:27px;}
	.st12{font-size:20px;}
	.st13{font-size:12px;}
	.st14{font-size:18.0418px;}
</style>
<text transform="matrix(1 0 0 1 372.0509 92.7157)" class="st0 st1 st2">share</text>
<text transform="matrix(1 0 0 1 205.0703 95.2999)" class="st3 st1 st4">coffee</text>
<text transform="matrix(1 0 0 1 296.0545 48.1378)" class="st3 st1 st5">dog</text>
<text transform="matrix(1 0 0 1 400.1132 130.4536)" class="st0 st1 st6">network</text>
<text transform="matrix(1 0 0 1 127.0646 63.5515)" class="st7 st1 st6">tech</text>
<text transform="matrix(1 0 0 1 90.747 182.0336)" class="st3 st1 st8">code</text>
<text transform="matrix(1 0 0 1 265.3006 155.4494)" class="st9 st1 st8">science</text>
<text transform="matrix(1 0 0 1 146.7941 124.1315)" class="st0 st1 st8">connection</text>
<text transform="matrix(1 0 0 1 385.3002 178.0294)" class="st10 st1 st8">fun</text>
<text transform="matrix(1 0 0 1 31.4496 89.2979)" class="st10 st1 st11">gadgets</text>
<text transform="matrix(1 0 0 1 162.3521 153.4557)" class="st10 st1 st11">gaming</text>
<text transform="matrix(1 0 0 1 215.7047 50.2189)" class="st10 st1 st12">internet</text>
<text transform="matrix(1 0 0 1 83.1491 116.0441)" class="st10 st1 st12">music</text>
<text transform="matrix(1 0 0 1 332.5924 117.7988)" class="st7 st1 st12">digital</text>
<text transform="matrix(1 0 0 1 394.5388 144.381)" class="st9 st1 st13">sports</text>
<text transform="matrix(1 0 0 1 66.3731 145.6242)" class="st7 st1 st13">programming</text>
<text transform="matrix(1 0 0 1 142.1182 89.7325)" class="st0 st1 st14">mentor</text>
</svg>
