<?xml version="1.0" encoding="utf-8"?>
<!-- Generator: Adobe Illustrator 22.0.1, SVG Export Plug-In . SVG Version: 6.00 Build 0)  -->
<svg version="1.1" id="Layer_1" xmlns="http://www.w3.org/2000/svg" xmlns:xlink="http://www.w3.org/1999/xlink" x="0px" y="0px"
	 viewBox="0 0 579.6 200.9" style="enable-background:new 0 0 579.6 200.9;" xml:space="preserve">
<style type="text/css">
	.st0{enable-background:new    ;}
	.st1{fill:#00A5FF;}
	.st2{fill:#98CFFF;}
	.st3{fill:#00D0FF;}
	.st4{fill:#2A3E52;}
	.st5{fill:#006ECE;}
</style>
<g class="st0">
	<path class="st1" d="M394.2,83.2c0-1-0.5-1.9-1.5-2.6c-1-0.7-2.8-1.4-5.5-1.9c-4-0.8-7.1-2-9.2-3.6c-2.1-1.6-3.1-3.8-3.1-6.6
		c0-2.9,1.2-5.4,3.7-7.5c2.5-2.1,5.8-3.1,10-3.1c4.3,0,7.8,1,10.4,3.1c2.6,2.1,3.9,4.7,3.8,7.7l-0.1,0.2h-9c0-1.4-0.4-2.5-1.3-3.4
		c-0.9-0.9-2.2-1.3-3.8-1.3c-1.5,0-2.7,0.4-3.5,1.1c-0.9,0.7-1.3,1.7-1.3,2.7c0,1.1,0.4,1.9,1.3,2.6c0.9,0.7,2.7,1.3,5.5,1.8
		c4.2,0.8,7.3,2.1,9.4,3.7c2.1,1.6,3.1,3.9,3.1,6.8c0,3.1-1.3,5.6-4,7.6c-2.6,2-6.1,3-10.5,3c-4.6,0-8.2-1.2-10.8-3.5
		c-2.7-2.3-3.9-5-3.8-7.9l0.1-0.2h8.5c0.1,1.8,0.7,3.2,1.8,4s2.6,1.2,4.5,1.2c1.7,0,3-0.3,3.9-1C393.7,85.3,394.2,84.4,394.2,83.2z"
		/>
	<path class="st1" d="M418.2,62.7c1.1-1.6,2.4-2.8,4-3.7s3.3-1.3,5.2-1.3c3.6,0,6.4,1.2,8.4,3.6c2,2.4,3.1,6.1,3.1,11v20.4h-9.3
		V72.3c0-2.7-0.4-4.6-1.3-5.7c-0.9-1.1-2.1-1.7-3.9-1.7c-1.4,0-2.7,0.2-3.7,0.7c-1,0.5-1.9,1.1-2.6,2v25.1h-9.3V43.2h9.3V62.7z"/>
	<path class="st1" d="M466.1,92.7c-0.3-0.8-0.6-1.6-0.9-2.5c-0.2-0.9-0.4-1.8-0.5-2.7c-1,1.7-2.2,3.1-3.8,4.2
		c-1.6,1.1-3.4,1.7-5.6,1.7c-3.6,0-6.4-0.9-8.3-2.8c-1.9-1.9-2.9-4.4-2.9-7.6c0-3.4,1.3-6,3.9-7.8c2.6-1.9,6.4-2.8,11.3-2.8h5.2
		v-2.7c0-1.7-0.4-2.9-1.3-3.8c-0.9-0.9-2.2-1.4-3.9-1.4c-1.5,0-2.7,0.4-3.5,1.1c-0.8,0.7-1.2,1.7-1.2,3h-8.9l-0.1-0.2
		c-0.1-2.9,1.1-5.4,3.8-7.5s6.2-3.2,10.5-3.2c4.1,0,7.5,1,10,3.1c2.5,2.1,3.8,5,3.8,8.9V84c0,1.6,0.1,3.1,0.4,4.5
		c0.2,1.4,0.6,2.8,1.2,4.2H466.1z M457.6,86.5c1.6,0,3-0.4,4.3-1.2c1.3-0.8,2.1-1.7,2.6-2.8v-4.9h-5.2c-2,0-3.5,0.5-4.5,1.5
		c-1,1-1.5,2.2-1.5,3.6c0,1.2,0.4,2.1,1.1,2.8C455.2,86.2,456.3,86.5,457.6,86.5z"/>
	<path class="st1" d="M498.8,66.3l-3.4-0.1c-1.4,0-2.5,0.3-3.4,0.9c-0.9,0.6-1.6,1.4-2,2.4v23.2h-9.2V58.4h8.6l0.4,5.1
		c0.8-1.8,1.8-3.2,3.1-4.2s2.8-1.5,4.4-1.5c0.5,0,0.9,0,1.3,0.1s0.8,0.2,1.2,0.3L498.8,66.3z"/>
	<path class="st1" d="M517.9,93.4c-5.1,0-9.1-1.6-12-4.7c-2.9-3.1-4.3-7.2-4.3-12.1v-1.3c0-5.1,1.4-9.4,4.2-12.6
		c2.8-3.3,6.6-4.9,11.5-4.9c4.6,0,8.2,1.4,10.6,4.2c2.5,2.8,3.7,6.6,3.7,11.4v4.8h-20.5l-0.1,0.2c0.1,2.3,0.9,4.3,2.1,5.7
		c1.3,1.5,3.2,2.2,5.7,2.2c2.1,0,3.8-0.2,5.3-0.6c1.4-0.4,2.9-1.1,4.5-1.9l2.5,5.7c-1.4,1.1-3.2,2.1-5.6,2.8S520.7,93.4,517.9,93.4z
		 M517.3,64.9c-1.9,0-3.3,0.6-4.3,1.9c-1,1.3-1.6,3-1.8,5.1l0.1,0.2h11.3v-0.7c0-2-0.4-3.6-1.2-4.7S519.1,64.9,517.3,64.9z"/>
</g>
<g class="st0">
	<path class="st2" d="M218.8,90.3c1.2,0,2.2-0.4,3-1.1c0.7-0.7,1.1-1.7,1.1-3h6.5l0,0.1c0.1,2.7-0.9,4.9-3,6.7
		c-2.1,1.8-4.6,2.7-7.6,2.7c-3.9,0-6.9-1.2-9.1-3.7c-2.1-2.5-3.2-5.7-3.2-9.6v-0.7c0-3.9,1.1-7.1,3.2-9.6c2.1-2.5,5.1-3.8,9-3.8
		c3.2,0,5.8,0.9,7.8,2.8s2.9,4.3,2.9,7.3l0,0.1h-6.5c0-1.4-0.4-2.5-1.1-3.4c-0.7-0.9-1.7-1.4-3-1.4c-1.8,0-3.1,0.7-3.9,2.2
		c-0.8,1.5-1.2,3.4-1.2,5.7v0.7c0,2.3,0.4,4.2,1.2,5.7C215.6,89.6,217,90.3,218.8,90.3z"/>
	<path class="st2" d="M232.5,81.8c0-3.9,1.1-7.2,3.3-9.7c2.2-2.5,5.2-3.8,9.1-3.8c3.9,0,7,1.3,9.2,3.8c2.2,2.5,3.3,5.7,3.3,9.7v0.5
		c0,4-1.1,7.2-3.3,9.7c-2.2,2.5-5.3,3.7-9.1,3.7c-3.9,0-7-1.2-9.2-3.7c-2.2-2.5-3.3-5.7-3.3-9.7V81.8z M239.6,82.4
		c0,2.4,0.4,4.3,1.3,5.8c0.8,1.5,2.2,2.2,4.1,2.2c1.8,0,3.2-0.7,4-2.2c0.9-1.5,1.3-3.4,1.3-5.8v-0.5c0-2.3-0.4-4.3-1.3-5.7
		c-0.9-1.5-2.2-2.2-4.1-2.2c-1.8,0-3.2,0.7-4,2.2c-0.9,1.5-1.3,3.4-1.3,5.7V82.4z"/>
	<path class="st2" d="M263.7,95.3V73.9h-3.9v-5h3.9V66c0-3,0.9-5.2,2.6-6.8c1.7-1.6,4.1-2.4,7.2-2.4c0.6,0,1.2,0,1.8,0.1
		c0.6,0.1,1.3,0.2,2.1,0.4l-0.6,5.3c-0.4-0.1-0.8-0.1-1.1-0.2c-0.4,0-0.8-0.1-1.3-0.1c-1.2,0-2,0.3-2.6,1s-0.9,1.5-0.9,2.7v2.9h5.1
		v5h-5.1v21.4H263.7z"/>
	<path class="st2" d="M281.1,95.3V73.9h-3.9v-5h3.9V66c0-3,0.9-5.2,2.6-6.8c1.7-1.6,4.1-2.4,7.2-2.4c0.6,0,1.2,0,1.8,0.1
		c0.6,0.1,1.3,0.2,2.1,0.4l-0.6,5.3c-0.4-0.1-0.8-0.1-1.1-0.2c-0.4,0-0.8-0.1-1.3-0.1c-1.2,0-2,0.3-2.6,1s-0.9,1.5-0.9,2.7v2.9h5.1
		v5h-5.1v21.4H281.1z"/>
	<path class="st2" d="M307.5,95.8c-3.9,0-7-1.2-9.2-3.6c-2.2-2.4-3.3-5.5-3.3-9.3v-1c0-4,1.1-7.2,3.2-9.7c2.1-2.5,5.1-3.8,8.9-3.8
		c3.5,0,6.3,1.1,8.2,3.3c1.9,2.2,2.8,5.1,2.8,8.8v3.7h-15.7l-0.1,0.1c0.1,1.8,0.7,3.3,1.6,4.4s2.4,1.7,4.4,1.7
		c1.6,0,2.9-0.2,4.1-0.5c1.1-0.3,2.3-0.8,3.5-1.5l1.9,4.4c-1.1,0.9-2.5,1.6-4.3,2.2S309.7,95.8,307.5,95.8z M307.1,73.9
		c-1.4,0-2.5,0.5-3.3,1.5c-0.8,1-1.2,2.3-1.4,3.9l0,0.1h8.7v-0.5c0-1.5-0.3-2.8-1-3.6C309.5,74.3,308.5,73.9,307.1,73.9z"/>
	<path class="st2" d="M333.7,95.8c-3.9,0-7-1.2-9.2-3.6c-2.2-2.4-3.3-5.5-3.3-9.3v-1c0-4,1.1-7.2,3.2-9.7c2.1-2.5,5.1-3.8,8.9-3.8
		c3.5,0,6.3,1.1,8.2,3.3c1.9,2.2,2.8,5.1,2.8,8.8v3.7h-15.7l-0.1,0.1c0.1,1.8,0.7,3.3,1.6,4.4c1,1.1,2.4,1.7,4.4,1.7
		c1.6,0,3-0.2,4.1-0.5c1.1-0.3,2.3-0.8,3.5-1.5l1.9,4.4c-1.1,0.9-2.5,1.6-4.3,2.2S335.8,95.8,333.7,95.8z M333.2,73.9
		c-1.4,0-2.5,0.5-3.3,1.5c-0.8,1-1.2,2.3-1.4,3.9l0,0.1h8.7v-0.5c0-1.5-0.3-2.8-1-3.6C335.7,74.3,334.6,73.9,333.2,73.9z"/>
</g>
<g class="st0">
	<path class="st2" d="M297.5,37c0-3.6,0.8-6.5,2.3-8.7c1.5-2.2,3.7-3.3,6.5-3.3c1.1,0,2.2,0.2,3.1,0.7c0.9,0.5,1.7,1.2,2.4,2.1V15.4
		h6.2v32.8h-5.2l-0.5-2.8c-0.7,1.1-1.6,1.9-2.5,2.4s-2.1,0.8-3.4,0.8c-2.8,0-5-1-6.5-3.1c-1.5-2-2.3-4.7-2.3-8.1V37z M303.6,37.4
		c0,2,0.3,3.6,1,4.7s1.8,1.7,3.3,1.7c0.9,0,1.7-0.2,2.3-0.5c0.7-0.4,1.2-0.9,1.6-1.6V32c-0.4-0.7-1-1.3-1.6-1.7
		c-0.7-0.4-1.4-0.6-2.3-0.6c-1.5,0-2.6,0.7-3.3,2c-0.7,1.3-1,3.1-1,5.2V37.4z"/>
	<path class="st2" d="M321.7,36.6c0-3.4,0.9-6.2,2.8-8.3c1.9-2.2,4.5-3.2,7.9-3.2c3.4,0,6,1.1,7.9,3.2c1.9,2.2,2.9,4.9,2.9,8.3V37
		c0,3.4-0.9,6.2-2.8,8.3c-1.9,2.1-4.5,3.2-7.9,3.2c-3.4,0-6-1.1-7.9-3.2c-1.9-2.1-2.8-4.9-2.8-8.3V36.6z M327.8,37
		c0,2.1,0.4,3.7,1.1,5c0.7,1.3,1.9,1.9,3.5,1.9c1.6,0,2.7-0.6,3.5-1.9c0.7-1.3,1.1-2.9,1.1-5v-0.4c0-2-0.4-3.7-1.1-4.9
		s-1.9-1.9-3.5-1.9c-1.6,0-2.7,0.6-3.5,1.9c-0.7,1.3-1.1,2.9-1.1,4.9V37z"/>
	<path class="st2" d="M346,37c0-3.6,0.8-6.5,2.3-8.7c1.6-2.2,3.7-3.3,6.6-3.3c1.3,0,2.4,0.3,3.4,0.9c1,0.6,1.8,1.4,2.5,2.5l0.5-2.9
		h5.3V48c0,3-1,5.2-2.9,6.9c-1.9,1.6-4.6,2.4-8.1,2.4c-1.1,0-2.4-0.2-3.7-0.5c-1.3-0.3-2.5-0.7-3.6-1.3l1-4.6c0.9,0.4,1.9,0.8,2.9,1
		c1,0.2,2.1,0.3,3.2,0.3c1.7,0,2.9-0.3,3.7-1s1.2-1.8,1.2-3.3V46c-0.7,0.9-1.5,1.5-2.4,2c-0.9,0.4-2,0.7-3.1,0.7c-2.8,0-5-1-6.5-3.1
		c-1.6-2-2.3-4.7-2.3-8.1V37z M352.2,37.4c0,2,0.3,3.6,1,4.7c0.7,1.1,1.8,1.7,3.3,1.7c0.9,0,1.7-0.2,2.4-0.5
		c0.7-0.3,1.2-0.8,1.6-1.5V32c-0.4-0.7-0.9-1.2-1.6-1.6c-0.7-0.4-1.4-0.6-2.3-0.6c-1.5,0-2.6,0.7-3.3,2c-0.7,1.3-1,3.1-1,5.2V37.4z"
		/>
</g>
<g class="st0">
	<path class="st1" d="M407.1,110.4l0.2,2.9c0.7-1,1.5-1.8,2.5-2.4c1-0.6,2.1-0.9,3.3-0.9c2,0,3.6,0.7,4.8,2c1.1,1.3,1.7,3.4,1.7,6.2
		v12.3h-5.4v-12.3c0-1.4-0.3-2.5-0.8-3.1c-0.5-0.6-1.3-0.9-2.3-0.9c-0.8,0-1.5,0.2-2.1,0.5c-0.6,0.3-1.1,0.7-1.5,1.3v14.5h-5.4
		v-20.1H407.1z"/>
	<path class="st1" d="M432.3,130.8c-3,0-5.3-0.9-7-2.8c-1.7-1.8-2.5-4.2-2.5-7.1v-0.7c0-3,0.8-5.5,2.4-7.4c1.6-1.9,3.9-2.9,6.7-2.9
		c2.7,0,4.8,0.8,6.2,2.5c1.4,1.7,2.2,3.9,2.2,6.7v2.8h-12l-0.1,0.1c0.1,1.4,0.5,2.5,1.3,3.3s1.9,1.3,3.3,1.3c1.2,0,2.2-0.1,3.1-0.4
		c0.8-0.2,1.7-0.6,2.6-1.1l1.5,3.3c-0.8,0.7-1.9,1.2-3.3,1.7S434,130.8,432.3,130.8z M432,114.2c-1.1,0-1.9,0.4-2.5,1.1
		c-0.6,0.7-0.9,1.7-1.1,3l0,0.1h6.6V118c0-1.2-0.2-2.1-0.7-2.8C433.8,114.5,433.1,114.2,432,114.2z"/>
	<path class="st1" d="M450,105.5v4.9h3.4v3.8H450v10.2c0,0.8,0.2,1.3,0.5,1.7s0.8,0.5,1.3,0.5c0.3,0,0.5,0,0.7,0
		c0.2,0,0.5-0.1,0.7-0.2l0.4,3.9c-0.5,0.2-1.1,0.3-1.6,0.4c-0.5,0.1-1.1,0.1-1.7,0.1c-1.9,0-3.3-0.5-4.3-1.5c-1-1-1.5-2.7-1.5-4.9
		v-10.2h-2.9v-3.8h2.9v-4.9H450z"/>
	<path class="st1" d="M474.2,123h0.1l2.4-12.6h5.3l-5.1,20.1h-4.5l-3.7-11.6h-0.1l-3.7,11.6h-4.5l-5.1-20.1h5.3l2.5,12.6h0.1
		l3.7-12.6h3.6L474.2,123z"/>
	<path class="st1" d="M483.9,120.2c0-3,0.8-5.4,2.5-7.4c1.7-1.9,4-2.9,6.9-2.9c3,0,5.3,1,7,2.9c1.7,1.9,2.5,4.4,2.5,7.4v0.4
		c0,3-0.8,5.5-2.5,7.4c-1.7,1.9-4,2.8-6.9,2.8c-3,0-5.3-0.9-7-2.8c-1.7-1.9-2.5-4.4-2.5-7.4V120.2z M489.3,120.6
		c0,1.8,0.3,3.3,1,4.4c0.6,1.1,1.7,1.7,3.1,1.7c1.4,0,2.4-0.6,3.1-1.7s1-2.6,1-4.4v-0.4c0-1.8-0.3-3.2-1-4.4
		c-0.7-1.1-1.7-1.7-3.1-1.7c-1.4,0-2.4,0.6-3.1,1.7c-0.6,1.1-1,2.6-1,4.4V120.6z"/>
	<path class="st1" d="M516.7,115l-2-0.1c-0.8,0-1.5,0.2-2,0.5s-0.9,0.8-1.2,1.4v13.6h-5.4v-20.1h5l0.2,3c0.5-1.1,1.1-1.9,1.8-2.5
		c0.7-0.6,1.6-0.9,2.6-0.9c0.3,0,0.5,0,0.8,0.1c0.2,0,0.5,0.1,0.7,0.2L516.7,115z"/>
	<path class="st1" d="M526.3,122h-1.4v8.4h-5.4v-28.9h5.4v16.4h1.2l4.8-7.6h6.3l-6.5,9.1l7.4,10.9h-6.2L526.3,122z"/>
</g>
<g class="st0">
	<path class="st3" d="M135.6,38.6v4.9h3.4v3.8h-3.4v10.2c0,0.8,0.2,1.3,0.5,1.7c0.3,0.3,0.8,0.5,1.3,0.5c0.3,0,0.5,0,0.7,0
		c0.2,0,0.5-0.1,0.7-0.2l0.4,3.9c-0.5,0.2-1.1,0.3-1.6,0.4c-0.5,0.1-1.1,0.1-1.7,0.1c-1.9,0-3.3-0.5-4.3-1.5c-1-1-1.5-2.7-1.5-4.9
		V47.3h-2.9v-3.8h2.9v-4.9H135.6z"/>
	<path class="st3" d="M151.1,63.9c-3,0-5.3-0.9-7-2.8c-1.7-1.8-2.5-4.2-2.5-7.1v-0.7c0-3,0.8-5.5,2.4-7.4c1.6-1.9,3.9-2.9,6.7-2.9
		c2.7,0,4.8,0.8,6.2,2.5c1.4,1.7,2.2,3.9,2.2,6.7v2.8h-12l-0.1,0.1c0.1,1.4,0.5,2.5,1.3,3.3c0.7,0.9,1.9,1.3,3.3,1.3
		c1.2,0,2.2-0.1,3.1-0.4c0.8-0.2,1.7-0.6,2.6-1.1l1.5,3.3c-0.8,0.7-1.9,1.2-3.3,1.7S152.7,63.9,151.1,63.9z M150.7,47.3
		c-1.1,0-1.9,0.4-2.5,1.1c-0.6,0.7-0.9,1.7-1.1,3l0,0.1h6.6v-0.4c0-1.2-0.2-2.1-0.7-2.8C152.6,47.6,151.8,47.3,150.7,47.3z"/>
	<path class="st3" d="M170.6,59.8c0.9,0,1.7-0.3,2.2-0.8c0.6-0.6,0.8-1.3,0.8-2.3h4.9l0,0.1c0,2-0.7,3.7-2.3,5.1
		c-1.6,1.4-3.5,2-5.8,2c-3,0-5.3-0.9-6.9-2.8c-1.6-1.9-2.4-4.3-2.4-7.3v-0.6c0-2.9,0.8-5.4,2.4-7.3c1.6-1.9,3.9-2.9,6.9-2.9
		c2.4,0,4.4,0.7,5.9,2.1c1.5,1.4,2.2,3.3,2.2,5.6l0,0.1h-4.9c0-1-0.3-1.9-0.8-2.6c-0.6-0.7-1.3-1-2.3-1c-1.4,0-2.4,0.6-3,1.7
		c-0.6,1.1-0.9,2.6-0.9,4.3v0.6c0,1.8,0.3,3.2,0.9,4.3C168.2,59.2,169.2,59.8,170.6,59.8z"/>
	<path class="st3" d="M187.1,46c0.6-0.9,1.4-1.6,2.3-2.1c0.9-0.5,1.9-0.8,3-0.8c2.1,0,3.7,0.7,4.9,2.1c1.2,1.4,1.8,3.5,1.8,6.4v11.9
		h-5.4V51.6c0-1.6-0.3-2.7-0.8-3.3c-0.5-0.6-1.3-1-2.3-1c-0.8,0-1.5,0.1-2.2,0.4c-0.6,0.3-1.1,0.6-1.5,1.1v14.7h-5.4V34.6h5.4V46z"
		/>
</g>
<g class="st0">
	<path class="st2" d="M99.8,178.8c0.8,0,1.5-0.2,1.9-0.7c0.5-0.5,0.7-1.1,0.7-2h4.3l0,0.1c0,1.8-0.6,3.2-2,4.4c-1.4,1.2-3,1.8-5,1.8
		c-2.6,0-4.6-0.8-6-2.5c-1.4-1.6-2.1-3.8-2.1-6.3v-0.5c0-2.6,0.7-4.7,2.1-6.3c1.4-1.7,3.4-2.5,6-2.5c2.1,0,3.8,0.6,5.1,1.8
		s1.9,2.8,1.9,4.8l0,0.1h-4.3c0-0.9-0.2-1.7-0.7-2.2c-0.5-0.6-1.1-0.9-2-0.9c-1.2,0-2.1,0.5-2.6,1.5c-0.5,1-0.8,2.2-0.8,3.7v0.5
		c0,1.5,0.3,2.8,0.8,3.8C97.7,178.3,98.6,178.8,99.8,178.8z"/>
	<path class="st2" d="M108.8,173.2c0-2.6,0.7-4.7,2.2-6.4c1.5-1.7,3.5-2.5,6-2.5c2.6,0,4.6,0.8,6.1,2.5s2.2,3.8,2.2,6.4v0.3
		c0,2.6-0.7,4.8-2.2,6.4c-1.5,1.6-3.5,2.5-6,2.5c-2.6,0-4.6-0.8-6.1-2.5c-1.5-1.6-2.2-3.8-2.2-6.4V173.2z M113.5,173.5
		c0,1.6,0.3,2.9,0.8,3.8c0.6,1,1.5,1.4,2.7,1.4c1.2,0,2.1-0.5,2.7-1.4c0.6-1,0.8-2.2,0.8-3.8v-0.3c0-1.5-0.3-2.8-0.9-3.8
		s-1.5-1.5-2.7-1.5c-1.2,0-2.1,0.5-2.7,1.5c-0.6,1-0.8,2.2-0.8,3.8V173.5z"/>
	<path class="st2" d="M127.5,173.5c0-2.8,0.6-5,1.8-6.7c1.2-1.7,2.9-2.5,5-2.5c0.9,0,1.7,0.2,2.4,0.6c0.7,0.4,1.3,0.9,1.8,1.6v-9.6
		h4.7V182h-4l-0.4-2.1c-0.5,0.8-1.2,1.4-1.9,1.8c-0.8,0.4-1.6,0.6-2.6,0.6c-2.1,0-3.8-0.8-5-2.4c-1.2-1.6-1.8-3.6-1.8-6.2V173.5z
		 M132.2,173.8c0,1.5,0.3,2.7,0.8,3.6c0.5,0.9,1.4,1.3,2.5,1.3c0.7,0,1.3-0.1,1.8-0.4c0.5-0.3,0.9-0.7,1.2-1.2v-7.4
		c-0.3-0.5-0.7-1-1.2-1.3c-0.5-0.3-1.1-0.5-1.7-0.5c-1.1,0-2,0.5-2.5,1.5c-0.5,1-0.8,2.4-0.8,4V173.8z"/>
	<path class="st2" d="M154.4,182.4c-2.6,0-4.6-0.8-6.1-2.4c-1.5-1.6-2.2-3.6-2.2-6.2v-0.6c0-2.6,0.7-4.7,2.1-6.4s3.4-2.5,5.8-2.5
		c2.3,0,4.1,0.7,5.4,2.2c1.3,1.4,1.9,3.4,1.9,5.8v2.4h-10.4l0,0.1c0.1,1.2,0.4,2.2,1.1,2.9s1.6,1.1,2.9,1.1c1.1,0,1.9-0.1,2.7-0.3
		c0.7-0.2,1.5-0.5,2.3-1l1.3,2.9c-0.7,0.6-1.6,1-2.8,1.4S155.8,182.4,154.4,182.4z M154.1,167.9c-0.9,0-1.7,0.3-2.2,1
		c-0.5,0.6-0.8,1.5-0.9,2.6l0,0.1h5.7v-0.4c0-1-0.2-1.8-0.6-2.4C155.7,168.2,155,167.9,154.1,167.9z"/>
</g>
<g class="st0">
	<path class="st4" d="M276.5,150.6c0-0.5-0.2-1-0.7-1.3c-0.5-0.4-1.4-0.7-2.8-1c-2-0.4-3.6-1-4.6-1.9c-1.1-0.8-1.6-2-1.6-3.4
		c0-1.5,0.6-2.8,1.9-3.8s3-1.6,5.1-1.6c2.2,0,4,0.5,5.3,1.6c1.3,1.1,2,2.4,1.9,3.9l0,0.1h-4.5c0-0.7-0.2-1.3-0.7-1.7s-1.1-0.7-2-0.7
		c-0.8,0-1.3,0.2-1.8,0.6s-0.7,0.8-0.7,1.4c0,0.5,0.2,1,0.7,1.3c0.5,0.3,1.4,0.6,2.8,0.9c2.1,0.4,3.7,1.1,4.8,1.9
		c1,0.8,1.6,2,1.6,3.4c0,1.6-0.7,2.9-2,3.9s-3.1,1.5-5.3,1.5c-2.3,0-4.2-0.6-5.5-1.8c-1.3-1.2-2-2.5-1.9-4l0-0.1h4.3
		c0,0.9,0.3,1.6,0.9,2s1.3,0.6,2.3,0.6c0.9,0,1.5-0.2,2-0.5C276.3,151.7,276.5,151.2,276.5,150.6z"/>
	<path class="st4" d="M291.4,152.2c0.8,0,1.5-0.2,1.9-0.7c0.5-0.5,0.7-1.1,0.7-2h4.3l0,0.1c0,1.8-0.6,3.2-2,4.4
		c-1.4,1.2-3,1.8-5,1.8c-2.6,0-4.6-0.8-6-2.5c-1.4-1.6-2.1-3.8-2.1-6.3v-0.5c0-2.6,0.7-4.7,2.1-6.3c1.4-1.7,3.4-2.5,6-2.5
		c2.1,0,3.8,0.6,5.1,1.8s1.9,2.8,1.9,4.8l0,0.1h-4.3c0-0.9-0.2-1.7-0.7-2.2c-0.5-0.6-1.1-0.9-2-0.9c-1.2,0-2.1,0.5-2.6,1.5
		c-0.5,1-0.8,2.2-0.8,3.7v0.5c0,1.5,0.3,2.8,0.8,3.8C289.3,151.7,290.2,152.2,291.4,152.2z"/>
	<path class="st4" d="M306.1,133.8h-4.7v-3.5h4.7V133.8z M306.1,155.4h-4.7V138h4.7V155.4z"/>
	<path class="st4" d="M317.5,155.8c-2.6,0-4.6-0.8-6.1-2.4c-1.5-1.6-2.2-3.6-2.2-6.2v-0.6c0-2.6,0.7-4.7,2.1-6.4s3.4-2.5,5.8-2.5
		c2.3,0,4.1,0.7,5.4,2.2c1.3,1.4,1.9,3.4,1.9,5.8v2.4h-10.4l0,0.1c0.1,1.2,0.4,2.2,1.1,2.9c0.7,0.7,1.6,1.1,2.9,1.1
		c1.1,0,1.9-0.1,2.7-0.3c0.7-0.2,1.5-0.5,2.3-1l1.3,2.9c-0.7,0.6-1.6,1-2.8,1.4S318.9,155.8,317.5,155.8z M317.2,141.3
		c-0.9,0-1.7,0.3-2.2,1c-0.5,0.6-0.8,1.5-0.9,2.6l0,0.1h5.7v-0.4c0-1-0.2-1.8-0.6-2.4C318.8,141.6,318.1,141.3,317.2,141.3z"/>
	<path class="st4" d="M331.5,138l0.2,2.5c0.6-0.9,1.3-1.6,2.1-2.1s1.8-0.7,2.9-0.7c1.8,0,3.1,0.6,4.1,1.7c1,1.1,1.5,2.9,1.5,5.4
		v10.7h-4.7v-10.7c0-1.2-0.2-2.1-0.7-2.7c-0.4-0.5-1.1-0.8-2-0.8c-0.7,0-1.3,0.1-1.8,0.4c-0.5,0.3-1,0.6-1.3,1.1v12.6h-4.7V138
		H331.5z"/>
	<path class="st4" d="M353.1,152.2c0.8,0,1.5-0.2,1.9-0.7c0.5-0.5,0.7-1.1,0.7-2h4.3l0,0.1c0,1.8-0.6,3.2-2,4.4
		c-1.4,1.2-3,1.8-5,1.8c-2.6,0-4.6-0.8-6-2.5c-1.4-1.6-2.1-3.8-2.1-6.3v-0.5c0-2.6,0.7-4.7,2.1-6.3c1.4-1.7,3.4-2.5,6-2.5
		c2.1,0,3.8,0.6,5.1,1.8s1.9,2.8,1.9,4.8l0,0.1h-4.3c0-0.9-0.2-1.7-0.7-2.2c-0.5-0.6-1.1-0.9-2-0.9c-1.2,0-2.1,0.5-2.6,1.5
		c-0.5,1-0.8,2.2-0.8,3.7v0.5c0,1.5,0.3,2.8,0.8,3.8C351,151.7,351.9,152.2,353.1,152.2z"/>
	<path class="st4" d="M370.4,155.8c-2.6,0-4.6-0.8-6.1-2.4c-1.5-1.6-2.2-3.6-2.2-6.2v-0.6c0-2.6,0.7-4.7,2.1-6.4s3.4-2.5,5.8-2.5
		c2.3,0,4.1,0.7,5.4,2.2c1.3,1.4,1.9,3.4,1.9,5.8v2.4H367l0,0.1c0.1,1.2,0.4,2.2,1.1,2.9c0.6,0.7,1.6,1.1,2.9,1.1
		c1.1,0,1.9-0.1,2.7-0.3c0.7-0.2,1.5-0.5,2.3-1l1.3,2.9c-0.7,0.6-1.6,1-2.8,1.4S371.8,155.8,370.4,155.8z M370.1,141.3
		c-0.9,0-1.7,0.3-2.2,1c-0.5,0.6-0.8,1.5-0.9,2.6l0,0.1h5.7v-0.4c0-1-0.2-1.8-0.6-2.4C371.7,141.6,371,141.3,370.1,141.3z"/>
</g>
<g class="st0">
	<path class="st1" d="M155.9,120.9c0.8,0,1.5-0.2,1.9-0.7c0.5-0.5,0.7-1.1,0.7-2h4.3l0,0.1c0,1.8-0.6,3.2-2,4.4
		c-1.4,1.2-3,1.8-5,1.8c-2.6,0-4.6-0.8-6-2.5c-1.4-1.6-2.1-3.8-2.1-6.3v-0.5c0-2.6,0.7-4.7,2.1-6.3c1.4-1.7,3.4-2.5,6-2.5
		c2.1,0,3.8,0.6,5.1,1.8s1.9,2.8,1.9,4.8l0,0.1h-4.3c0-0.9-0.2-1.7-0.7-2.2c-0.5-0.6-1.1-0.9-2-0.9c-1.2,0-2.1,0.5-2.6,1.5
		c-0.5,1-0.8,2.2-0.8,3.7v0.5c0,1.5,0.3,2.8,0.8,3.8C153.8,120.4,154.6,120.9,155.9,120.9z"/>
	<path class="st1" d="M164.9,115.3c0-2.6,0.7-4.7,2.2-6.4c1.5-1.7,3.5-2.5,6-2.5c2.6,0,4.6,0.8,6.1,2.5s2.2,3.8,2.2,6.4v0.3
		c0,2.6-0.7,4.8-2.2,6.4c-1.5,1.6-3.5,2.5-6,2.5c-2.6,0-4.6-0.8-6.1-2.5c-1.5-1.6-2.2-3.8-2.2-6.4V115.3z M169.6,115.6
		c0,1.6,0.3,2.9,0.8,3.8c0.6,1,1.5,1.4,2.7,1.4c1.2,0,2.1-0.5,2.7-1.4c0.6-1,0.8-2.2,0.8-3.8v-0.3c0-1.5-0.3-2.8-0.9-3.8
		s-1.5-1.5-2.7-1.5c-1.2,0-2.1,0.5-2.7,1.5c-0.6,1-0.8,2.2-0.8,3.8V115.6z"/>
	<path class="st1" d="M188.5,106.7l0.2,2.5c0.6-0.9,1.3-1.6,2.1-2.1s1.8-0.7,2.9-0.7c1.8,0,3.1,0.6,4.1,1.7c1,1.1,1.5,2.9,1.5,5.4
		v10.7h-4.7v-10.7c0-1.2-0.2-2.1-0.7-2.7c-0.4-0.5-1.1-0.8-2-0.8c-0.7,0-1.3,0.1-1.8,0.4c-0.5,0.3-1,0.6-1.3,1.1v12.6h-4.7v-17.4
		H188.5z"/>
	<path class="st1" d="M207.2,106.7l0.2,2.5c0.6-0.9,1.3-1.6,2.1-2.1s1.8-0.7,2.9-0.7c1.8,0,3.1,0.6,4.1,1.7c1,1.1,1.5,2.9,1.5,5.4
		v10.7h-4.7v-10.7c0-1.2-0.2-2.1-0.7-2.7c-0.4-0.5-1.1-0.8-2-0.8c-0.7,0-1.3,0.1-1.8,0.4c-0.5,0.3-1,0.6-1.3,1.1v12.6h-4.7v-17.4
		H207.2z"/>
	<path class="st1" d="M229.1,124.5c-2.6,0-4.6-0.8-6.1-2.4c-1.5-1.6-2.2-3.6-2.2-6.2v-0.6c0-2.6,0.7-4.7,2.1-6.4s3.4-2.5,5.8-2.5
		c2.3,0,4.1,0.7,5.4,2.2c1.3,1.4,1.9,3.4,1.9,5.8v2.4h-10.4l0,0.1c0.1,1.2,0.4,2.2,1.1,2.9c0.7,0.7,1.6,1.1,2.9,1.1
		c1.1,0,1.9-0.1,2.7-0.3c0.7-0.2,1.5-0.5,2.3-1l1.3,2.9c-0.7,0.6-1.6,1-2.8,1.4S230.5,124.5,229.1,124.5z M228.7,110
		c-0.9,0-1.7,0.3-2.2,1c-0.5,0.6-0.8,1.5-0.9,2.6l0,0.1h5.7v-0.4c0-1-0.2-1.8-0.6-2.4C230.4,110.3,229.7,110,228.7,110z"/>
	<path class="st1" d="M246,120.9c0.8,0,1.5-0.2,1.9-0.7c0.5-0.5,0.7-1.1,0.7-2h4.3l0,0.1c0,1.8-0.6,3.2-2,4.4c-1.4,1.2-3,1.8-5,1.8
		c-2.6,0-4.6-0.8-6-2.5c-1.4-1.6-2.1-3.8-2.1-6.3v-0.5c0-2.6,0.7-4.7,2.1-6.3c1.4-1.7,3.4-2.5,6-2.5c2.1,0,3.8,0.6,5.1,1.8
		s1.9,2.8,1.9,4.8l0,0.1h-4.3c0-0.9-0.2-1.7-0.7-2.2c-0.5-0.6-1.1-0.9-2-0.9c-1.2,0-2.1,0.5-2.6,1.5c-0.5,1-0.8,2.2-0.8,3.7v0.5
		c0,1.5,0.3,2.8,0.8,3.8C243.9,120.4,244.8,120.9,246,120.9z"/>
	<path class="st1" d="M261.4,102.4v4.3h2.9v3.3h-2.9v8.9c0,0.7,0.1,1.2,0.4,1.5c0.3,0.3,0.7,0.4,1.1,0.4c0.2,0,0.5,0,0.6,0
		c0.2,0,0.4-0.1,0.6-0.1l0.4,3.4c-0.5,0.2-0.9,0.3-1.4,0.4c-0.4,0.1-0.9,0.1-1.5,0.1c-1.6,0-2.9-0.4-3.7-1.3
		c-0.9-0.9-1.3-2.3-1.3-4.2V110h-2.5v-3.3h2.5v-4.3H261.4z"/>
	<path class="st1" d="M272.2,102.5h-4.7V99h4.7V102.5z M272.2,124.1h-4.7v-17.4h4.7V124.1z"/>
	<path class="st1" d="M275.3,115.3c0-2.6,0.7-4.7,2.2-6.4c1.5-1.7,3.5-2.5,6-2.5c2.6,0,4.6,0.8,6.1,2.5s2.2,3.8,2.2,6.4v0.3
		c0,2.6-0.7,4.8-2.2,6.4c-1.5,1.6-3.5,2.5-6,2.5c-2.6,0-4.6-0.8-6.1-2.5c-1.5-1.6-2.2-3.8-2.2-6.4V115.3z M280,115.6
		c0,1.6,0.3,2.9,0.8,3.8c0.6,1,1.5,1.4,2.7,1.4c1.2,0,2.1-0.5,2.7-1.4c0.6-1,0.8-2.2,0.8-3.8v-0.3c0-1.5-0.3-2.8-0.9-3.8
		s-1.5-1.5-2.7-1.5c-1.2,0-2.1,0.5-2.7,1.5c-0.6,1-0.8,2.2-0.8,3.8V115.6z"/>
	<path class="st1" d="M299,106.7l0.2,2.5c0.6-0.9,1.3-1.6,2.1-2.1s1.8-0.7,2.9-0.7c1.8,0,3.1,0.6,4.1,1.7c1,1.1,1.5,2.9,1.5,5.4
		v10.7h-4.7v-10.7c0-1.2-0.2-2.1-0.7-2.7c-0.4-0.5-1.1-0.8-2-0.8c-0.7,0-1.3,0.1-1.8,0.4c-0.5,0.3-1,0.6-1.3,1.1v12.6h-4.7v-17.4
		H299z"/>
</g>
<g class="st0">
	<path class="st5" d="M388.3,178v-14.1h-2.6v-3.3h2.6v-1.9c0-2,0.6-3.5,1.7-4.5c1.1-1.1,2.7-1.6,4.8-1.6c0.4,0,0.8,0,1.2,0.1
		c0.4,0.1,0.9,0.1,1.4,0.3l-0.4,3.5c-0.3,0-0.5-0.1-0.8-0.1c-0.2,0-0.5,0-0.8,0c-0.8,0-1.3,0.2-1.7,0.6c-0.4,0.4-0.6,1-0.6,1.8v1.9
		h3.4v3.3H393V178H388.3z"/>
	<path class="st5" d="M409.3,175.5c-0.5,0.9-1.2,1.7-2,2.2s-1.8,0.8-2.9,0.8c-1.8,0-3.3-0.6-4.3-1.9c-1-1.2-1.6-3.2-1.6-5.8v-10.1
		h4.7v10.1c0,1.5,0.2,2.6,0.6,3.1c0.4,0.6,1.1,0.8,1.9,0.8c0.8,0,1.4-0.1,1.9-0.4c0.5-0.2,1-0.6,1.3-1.1v-12.7h4.7V178h-3.9
		L409.3,175.5z"/>
	<path class="st5" d="M421.5,160.6l0.2,2.5c0.6-0.9,1.3-1.6,2.1-2.1s1.8-0.7,2.9-0.7c1.8,0,3.1,0.6,4.1,1.7c1,1.1,1.5,2.9,1.5,5.4
		V178h-4.7v-10.7c0-1.2-0.2-2.1-0.7-2.7c-0.4-0.5-1.1-0.8-2-0.8c-0.7,0-1.3,0.1-1.8,0.4c-0.5,0.3-1,0.6-1.3,1.1V178h-4.7v-17.4
		H421.5z"/>
</g>
<g class="st0">
	<path class="st5" d="M32.4,82.3c0-2.3,0.5-4.1,1.5-5.4c1-1.4,2.3-2.1,4.1-2.1c0.8,0,1.5,0.2,2.1,0.5c0.6,0.4,1.1,0.9,1.6,1.5
		l0.3-1.8h3.3v14.2c0,1.9-0.6,3.3-1.8,4.3c-1.2,1-2.9,1.5-5.1,1.5c-0.7,0-1.5-0.1-2.3-0.3c-0.8-0.2-1.6-0.5-2.2-0.8l0.6-2.9
		c0.6,0.3,1.2,0.5,1.8,0.6c0.6,0.1,1.3,0.2,2,0.2c1.1,0,1.8-0.2,2.3-0.7s0.7-1.1,0.7-2.1v-1.3c-0.4,0.5-0.9,0.9-1.5,1.2
		c-0.6,0.3-1.2,0.4-2,0.4c-1.7,0-3.1-0.6-4.1-1.9c-1-1.3-1.5-3-1.5-5.1V82.3z M36.2,82.6c0,1.2,0.2,2.2,0.6,2.9
		c0.4,0.7,1.1,1.1,2,1.1c0.6,0,1.1-0.1,1.5-0.3c0.4-0.2,0.7-0.5,1-0.9v-6.2c-0.2-0.4-0.6-0.8-1-1c-0.4-0.2-0.9-0.4-1.5-0.4
		c-0.9,0-1.6,0.4-2.1,1.3s-0.6,1.9-0.6,3.3V82.6z"/>
	<path class="st5" d="M56.6,89.3c-0.1-0.3-0.3-0.7-0.4-1c-0.1-0.4-0.2-0.7-0.2-1.1c-0.4,0.7-0.9,1.3-1.6,1.7
		c-0.7,0.5-1.4,0.7-2.3,0.7c-1.5,0-2.6-0.4-3.5-1.2c-0.8-0.8-1.2-1.8-1.2-3.1c0-1.4,0.5-2.5,1.6-3.2c1.1-0.8,2.6-1.2,4.7-1.2h2.2
		v-1.1c0-0.7-0.2-1.2-0.5-1.6s-0.9-0.6-1.6-0.6c-0.6,0-1.1,0.2-1.4,0.5c-0.3,0.3-0.5,0.7-0.5,1.2h-3.7l0-0.1
		C48,78,48.6,77,49.7,76.1c1.1-0.9,2.6-1.3,4.4-1.3c1.7,0,3.1,0.4,4.2,1.3c1.1,0.9,1.6,2.1,1.6,3.7v5.9c0,0.7,0.1,1.3,0.2,1.9
		c0.1,0.6,0.3,1.2,0.5,1.8H56.6z M53.1,86.7c0.7,0,1.3-0.2,1.8-0.5c0.5-0.3,0.9-0.7,1.1-1.2v-2h-2.2c-0.8,0-1.4,0.2-1.9,0.6
		c-0.4,0.4-0.6,0.9-0.6,1.5c0,0.5,0.2,0.9,0.5,1.2C52.1,86.6,52.5,86.7,53.1,86.7z"/>
	<path class="st5" d="M62.1,82.3c0-2.3,0.5-4.1,1.5-5.4c1-1.4,2.3-2.1,4.1-2.1c0.7,0,1.4,0.2,1.9,0.5s1.1,0.7,1.5,1.3v-7.8h3.9v20.6
		h-3.3l-0.3-1.8c-0.4,0.7-1,1.2-1.6,1.5c-0.6,0.3-1.3,0.5-2.1,0.5c-1.7,0-3.1-0.6-4.1-1.9c-1-1.3-1.5-3-1.5-5.1V82.3z M65.9,82.6
		c0,1.2,0.2,2.2,0.6,2.9c0.4,0.7,1.1,1.1,2.1,1.1c0.6,0,1-0.1,1.5-0.3c0.4-0.2,0.8-0.6,1-1v-6.1c-0.3-0.4-0.6-0.8-1-1
		c-0.4-0.3-0.9-0.4-1.4-0.4c-0.9,0-1.6,0.4-2.1,1.3c-0.4,0.8-0.7,1.9-0.7,3.3V82.6z"/>
	<path class="st5" d="M77.3,82.3c0-2.3,0.5-4.1,1.5-5.4c1-1.4,2.3-2.1,4.1-2.1c0.8,0,1.5,0.2,2.1,0.5c0.6,0.4,1.1,0.9,1.6,1.5
		l0.3-1.8h3.3v14.2c0,1.9-0.6,3.3-1.8,4.3c-1.2,1-2.9,1.5-5.1,1.5c-0.7,0-1.5-0.1-2.3-0.3c-0.8-0.2-1.6-0.5-2.2-0.8l0.6-2.9
		c0.6,0.3,1.2,0.5,1.8,0.6c0.6,0.1,1.3,0.2,2,0.2c1.1,0,1.8-0.2,2.3-0.7s0.7-1.1,0.7-2.1v-1.3c-0.4,0.5-0.9,0.9-1.5,1.2
		c-0.6,0.3-1.2,0.4-2,0.4c-1.7,0-3.1-0.6-4.1-1.9c-1-1.3-1.5-3-1.5-5.1V82.3z M81.2,82.6c0,1.2,0.2,2.2,0.6,2.9
		c0.4,0.7,1.1,1.1,2,1.1c0.6,0,1.1-0.1,1.5-0.3c0.4-0.2,0.7-0.5,1-0.9v-6.2c-0.2-0.4-0.6-0.8-1-1c-0.4-0.2-0.9-0.4-1.5-0.4
		c-0.9,0-1.6,0.4-2.1,1.3s-0.6,1.9-0.6,3.3V82.6z"/>
	<path class="st5" d="M99.3,89.6c-2.1,0-3.8-0.7-5-2c-1.2-1.3-1.8-3-1.8-5V82c0-2.1,0.6-3.9,1.7-5.2s2.8-2,4.8-2
		c1.9,0,3.4,0.6,4.4,1.8c1,1.2,1.5,2.8,1.5,4.7v2h-8.5l0,0.1c0.1,1,0.4,1.8,0.9,2.4c0.5,0.6,1.3,0.9,2.4,0.9c0.9,0,1.6-0.1,2.2-0.3
		c0.6-0.2,1.2-0.4,1.9-0.8l1,2.4c-0.6,0.5-1.3,0.9-2.3,1.2S100.5,89.6,99.3,89.6z M99.1,77.7c-0.8,0-1.4,0.3-1.8,0.8
		c-0.4,0.5-0.7,1.2-0.8,2.1l0,0.1h4.7v-0.3c0-0.8-0.2-1.5-0.5-2C100.4,78,99.8,77.7,99.1,77.7z"/>
	<path class="st5" d="M111.9,71.5V75h2.4v2.7h-2.4V85c0,0.6,0.1,0.9,0.3,1.2c0.2,0.2,0.5,0.4,0.9,0.4c0.2,0,0.4,0,0.5,0
		c0.1,0,0.3-0.1,0.5-0.1l0.3,2.8c-0.4,0.1-0.8,0.2-1.1,0.3c-0.4,0.1-0.8,0.1-1.2,0.1c-1.3,0-2.3-0.4-3.1-1.1
		c-0.7-0.7-1.1-1.9-1.1-3.5v-7.3H106V75h2.1v-3.5H111.9z"/>
	<path class="st5" d="M124.4,85.3c0-0.4-0.2-0.8-0.6-1.1c-0.4-0.3-1.2-0.6-2.3-0.8c-1.7-0.3-2.9-0.8-3.8-1.5s-1.3-1.6-1.3-2.8
		c0-1.2,0.5-2.3,1.6-3.1s2.4-1.3,4.1-1.3c1.8,0,3.2,0.4,4.3,1.3s1.6,1.9,1.6,3.2l0,0.1h-3.7c0-0.6-0.2-1-0.6-1.4s-0.9-0.5-1.6-0.5
		c-0.6,0-1.1,0.2-1.5,0.5s-0.5,0.7-0.5,1.1c0,0.4,0.2,0.8,0.6,1.1c0.4,0.3,1.1,0.5,2.3,0.7c1.7,0.4,3.1,0.9,3.9,1.5
		c0.9,0.7,1.3,1.6,1.3,2.8c0,1.3-0.5,2.3-1.6,3.2s-2.5,1.2-4.4,1.2c-1.9,0-3.4-0.5-4.5-1.4c-1.1-1-1.6-2.1-1.6-3.3l0-0.1h3.5
		c0,0.8,0.3,1.3,0.8,1.7s1.1,0.5,1.9,0.5c0.7,0,1.3-0.1,1.6-0.4C124.2,86.2,124.4,85.8,124.4,85.3z"/>
</g>
<g class="st0">
	<path class="st5" d="M163.3,146.4c0-2.3,0.5-4.1,1.5-5.4c1-1.4,2.3-2.1,4.1-2.1c0.8,0,1.5,0.2,2.1,0.5c0.6,0.4,1.1,0.9,1.6,1.5
		l0.3-1.8h3.3v14.2c0,1.9-0.6,3.3-1.8,4.3c-1.2,1-2.9,1.5-5.1,1.5c-0.7,0-1.5-0.1-2.3-0.3c-0.8-0.2-1.6-0.5-2.2-0.8l0.6-2.9
		c0.6,0.3,1.2,0.5,1.8,0.6c0.6,0.1,1.3,0.2,2,0.2c1.1,0,1.8-0.2,2.3-0.7s0.7-1.1,0.7-2.1v-1.3c-0.4,0.5-0.9,0.9-1.5,1.2
		c-0.6,0.3-1.2,0.4-2,0.4c-1.7,0-3.1-0.6-4.1-1.9c-1-1.3-1.5-3-1.5-5.1V146.4z M167.1,146.7c0,1.2,0.2,2.2,0.6,2.9
		c0.4,0.7,1.1,1.1,2,1.1c0.6,0,1.1-0.1,1.5-0.3c0.4-0.2,0.7-0.5,1-0.9v-6.2c-0.2-0.4-0.6-0.8-1-1c-0.4-0.2-0.9-0.4-1.5-0.4
		c-0.9,0-1.6,0.4-2.1,1.3s-0.6,1.9-0.6,3.3V146.7z"/>
	<path class="st5" d="M187.5,153.5c-0.1-0.3-0.3-0.7-0.4-1c-0.1-0.4-0.2-0.7-0.2-1.1c-0.4,0.7-0.9,1.3-1.6,1.7
		c-0.7,0.5-1.4,0.7-2.3,0.7c-1.5,0-2.6-0.4-3.5-1.2c-0.8-0.8-1.2-1.8-1.2-3.1c0-1.4,0.5-2.5,1.6-3.2c1.1-0.8,2.6-1.2,4.7-1.2h2.2
		v-1.1c0-0.7-0.2-1.2-0.5-1.6s-0.9-0.6-1.6-0.6c-0.6,0-1.1,0.2-1.4,0.5c-0.3,0.3-0.5,0.7-0.5,1.2H179l0-0.1
		c-0.1-1.2,0.5-2.2,1.6-3.1c1.1-0.9,2.6-1.3,4.4-1.3c1.7,0,3.1,0.4,4.2,1.3c1.1,0.9,1.6,2.1,1.6,3.7v5.9c0,0.7,0.1,1.3,0.2,1.9
		c0.1,0.6,0.3,1.2,0.5,1.8H187.5z M184,150.9c0.7,0,1.3-0.2,1.8-0.5c0.5-0.3,0.9-0.7,1.1-1.2v-2h-2.2c-0.8,0-1.4,0.2-1.9,0.6
		c-0.4,0.4-0.6,0.9-0.6,1.5c0,0.5,0.2,0.9,0.5,1.2C183,150.7,183.4,150.9,184,150.9z"/>
	<path class="st5" d="M197.1,139.2l0.2,1.9c0.5-0.7,1-1.2,1.7-1.6c0.7-0.4,1.5-0.6,2.4-0.6c0.9,0,1.7,0.2,2.3,0.6s1.1,1,1.5,1.8
		c0.4-0.8,1-1.4,1.7-1.8c0.7-0.4,1.5-0.6,2.5-0.6c1.4,0,2.5,0.5,3.3,1.5c0.8,1,1.2,2.5,1.2,4.6v8.5h-3.8V145c0-1.1-0.2-1.9-0.5-2.4
		s-0.9-0.7-1.6-0.7c-0.5,0-1,0.1-1.4,0.4c-0.4,0.2-0.7,0.6-1,1c0,0.2,0,0.3,0,0.4c0,0.1,0,0.2,0,0.4v9.4h-3.8V145
		c0-1.1-0.2-1.9-0.5-2.4c-0.4-0.5-0.9-0.7-1.6-0.7c-0.5,0-1,0.1-1.4,0.3c-0.4,0.2-0.7,0.5-1,0.8v10.4h-3.8v-14.3H197.1z"/>
	<path class="st5" d="M221,135.8h-3.8v-2.9h3.8V135.8z M221,153.5h-3.8v-14.3h3.8V153.5z"/>
	<path class="st5" d="M227.7,139.2l0.2,2c0.5-0.7,1.1-1.3,1.8-1.7s1.5-0.6,2.3-0.6c1.4,0,2.6,0.5,3.4,1.4c0.8,0.9,1.2,2.4,1.2,4.4
		v8.7h-3.9v-8.7c0-1-0.2-1.7-0.5-2.2c-0.4-0.4-0.9-0.6-1.6-0.6c-0.6,0-1.1,0.1-1.5,0.3c-0.4,0.2-0.8,0.5-1.1,0.9v10.3h-3.8v-14.3
		H227.7z"/>
	<path class="st5" d="M238.8,146.4c0-2.3,0.5-4.1,1.5-5.4c1-1.4,2.3-2.1,4.1-2.1c0.8,0,1.5,0.2,2.1,0.5c0.6,0.4,1.1,0.9,1.6,1.5
		l0.3-1.8h3.3v14.2c0,1.9-0.6,3.3-1.8,4.3c-1.2,1-2.9,1.5-5.1,1.5c-0.7,0-1.5-0.1-2.3-0.3c-0.8-0.2-1.6-0.5-2.2-0.8l0.6-2.9
		c0.6,0.3,1.2,0.5,1.8,0.6c0.6,0.1,1.3,0.2,2,0.2c1.1,0,1.8-0.2,2.3-0.7c0.5-0.4,0.7-1.1,0.7-2.1v-1.3c-0.4,0.5-0.9,0.9-1.5,1.2
		c-0.6,0.3-1.2,0.4-2,0.4c-1.7,0-3.1-0.6-4.1-1.9c-1-1.3-1.5-3-1.5-5.1V146.4z M242.7,146.7c0,1.2,0.2,2.2,0.6,2.9
		c0.4,0.7,1.1,1.1,2,1.1c0.6,0,1.1-0.1,1.5-0.3c0.4-0.2,0.7-0.5,1-0.9v-6.2c-0.2-0.4-0.6-0.8-1-1c-0.4-0.2-0.9-0.4-1.5-0.4
		c-0.9,0-1.6,0.4-2.1,1.3s-0.6,1.9-0.6,3.3V146.7z"/>
</g>
<g class="st0">
	<path class="st5" d="M219.8,37.1h-2.9V35h2.9V37.1z M219.8,50.2h-2.9V39.7h2.9V50.2z"/>
	<path class="st5" d="M224.7,39.7l0.1,1.5c0.4-0.5,0.8-1,1.3-1.3c0.5-0.3,1.1-0.4,1.7-0.4c1.1,0,1.9,0.3,2.5,1
		c0.6,0.7,0.9,1.8,0.9,3.3v6.5h-2.9v-6.5c0-0.8-0.1-1.3-0.4-1.6s-0.7-0.5-1.2-0.5c-0.4,0-0.8,0.1-1.1,0.2s-0.6,0.4-0.8,0.7v7.6h-2.9
		V39.7H224.7z"/>
	<path class="st5" d="M236.8,37.1v2.6h1.8v2h-1.8V47c0,0.4,0.1,0.7,0.3,0.9c0.2,0.2,0.4,0.3,0.7,0.3c0.1,0,0.3,0,0.4,0
		c0.1,0,0.2,0,0.4-0.1l0.2,2.1c-0.3,0.1-0.6,0.2-0.8,0.2c-0.3,0-0.6,0.1-0.9,0.1c-1,0-1.7-0.3-2.3-0.8c-0.5-0.5-0.8-1.4-0.8-2.6
		v-5.4h-1.5v-2h1.5v-2.6H236.8z"/>
	<path class="st5" d="M245,50.4c-1.6,0-2.8-0.5-3.7-1.5c-0.9-1-1.3-2.2-1.3-3.7v-0.4c0-1.6,0.4-2.9,1.3-3.9s2-1.5,3.5-1.5
		c1.4,0,2.5,0.4,3.3,1.3c0.8,0.9,1.1,2,1.1,3.5v1.5h-6.3l0,0.1c0,0.7,0.3,1.3,0.7,1.8c0.4,0.4,1,0.7,1.8,0.7c0.6,0,1.2-0.1,1.6-0.2
		c0.4-0.1,0.9-0.3,1.4-0.6l0.8,1.8c-0.4,0.3-1,0.6-1.7,0.9S245.8,50.4,245,50.4z M244.8,41.7c-0.6,0-1,0.2-1.3,0.6
		c-0.3,0.4-0.5,0.9-0.6,1.6l0,0h3.5v-0.2c0-0.6-0.1-1.1-0.4-1.5S245.4,41.7,244.8,41.7z"/>
	<path class="st5" d="M256.4,42.1l-1,0c-0.4,0-0.8,0.1-1,0.3s-0.5,0.4-0.6,0.7v7.1h-2.8V39.7h2.6l0.1,1.6c0.2-0.6,0.6-1,1-1.3
		c0.4-0.3,0.8-0.5,1.4-0.5c0.1,0,0.3,0,0.4,0c0.1,0,0.2,0.1,0.4,0.1L256.4,42.1z"/>
	<path class="st5" d="M260.5,39.7l0.1,1.5c0.4-0.5,0.8-1,1.3-1.3c0.5-0.3,1.1-0.4,1.7-0.4c1.1,0,1.9,0.3,2.5,1
		c0.6,0.7,0.9,1.8,0.9,3.3v6.5h-2.9v-6.5c0-0.8-0.1-1.3-0.4-1.6s-0.7-0.5-1.2-0.5c-0.4,0-0.8,0.1-1.1,0.2s-0.6,0.4-0.8,0.7v7.6h-2.9
		V39.7H260.5z"/>
	<path class="st5" d="M273.8,50.4c-1.6,0-2.8-0.5-3.7-1.5c-0.9-1-1.3-2.2-1.3-3.7v-0.4c0-1.6,0.4-2.9,1.3-3.9s2-1.5,3.5-1.5
		c1.4,0,2.5,0.4,3.3,1.3c0.8,0.9,1.1,2,1.1,3.5v1.5h-6.3l0,0.1c0,0.7,0.3,1.3,0.7,1.8c0.4,0.4,1,0.7,1.8,0.7c0.6,0,1.2-0.1,1.6-0.2
		c0.4-0.1,0.9-0.3,1.4-0.6l0.8,1.8c-0.4,0.3-1,0.6-1.7,0.9S274.6,50.4,273.8,50.4z M273.6,41.7c-0.6,0-1,0.2-1.3,0.6
		c-0.3,0.4-0.5,0.9-0.6,1.6l0,0h3.5v-0.2c0-0.6-0.1-1.1-0.4-1.5S274.1,41.7,273.6,41.7z"/>
	<path class="st5" d="M283.1,37.1v2.6h1.8v2h-1.8V47c0,0.4,0.1,0.7,0.3,0.9c0.2,0.2,0.4,0.3,0.7,0.3c0.1,0,0.3,0,0.4,0
		c0.1,0,0.2,0,0.4-0.1l0.2,2.1c-0.3,0.1-0.6,0.2-0.8,0.2c-0.3,0-0.6,0.1-0.9,0.1c-1,0-1.7-0.3-2.3-0.8c-0.5-0.5-0.8-1.4-0.8-2.6
		v-5.4h-1.5v-2h1.5v-2.6H283.1z"/>
</g>
<g class="st0">
	<path class="st5" d="M86.9,105.5l0.1,1.4c0.3-0.5,0.8-0.9,1.3-1.2s1.1-0.4,1.8-0.4c0.7,0,1.3,0.1,1.7,0.4s0.8,0.8,1.1,1.4
		c0.3-0.6,0.7-1,1.3-1.3s1.1-0.5,1.8-0.5c1,0,1.9,0.4,2.5,1.1s0.9,1.9,0.9,3.4v6.3h-2.9v-6.3c0-0.8-0.1-1.4-0.4-1.8
		s-0.6-0.5-1.2-0.5c-0.4,0-0.8,0.1-1,0.3s-0.5,0.4-0.7,0.7c0,0.1,0,0.2,0,0.3s0,0.2,0,0.3v6.9h-2.8v-6.3c0-0.8-0.1-1.4-0.4-1.8
		s-0.7-0.5-1.2-0.5c-0.4,0-0.7,0.1-1,0.2s-0.5,0.4-0.7,0.6v7.7h-2.8v-10.6H86.9z"/>
	<path class="st5" d="M108,114.5c-0.3,0.6-0.7,1-1.2,1.3s-1.1,0.5-1.7,0.5c-1.1,0-2-0.4-2.6-1.1s-0.9-1.9-0.9-3.5v-6.1h2.8v6.1
		c0,0.9,0.1,1.6,0.4,1.9s0.6,0.5,1.2,0.5c0.5,0,0.8-0.1,1.2-0.2s0.6-0.4,0.8-0.6v-7.7h2.9V116h-2.4L108,114.5z"/>
	<path class="st5" d="M118.5,113.1c0-0.3-0.2-0.6-0.5-0.8s-0.9-0.4-1.7-0.6c-1.2-0.2-2.2-0.6-2.8-1.1s-1-1.2-1-2
		c0-0.9,0.4-1.7,1.2-2.3s1.8-1,3.1-1c1.3,0,2.4,0.3,3.2,1s1.2,1.4,1.2,2.4l0,0.1h-2.8c0-0.4-0.1-0.8-0.4-1s-0.7-0.4-1.2-0.4
		c-0.5,0-0.8,0.1-1.1,0.3s-0.4,0.5-0.4,0.8c0,0.3,0.1,0.6,0.4,0.8s0.8,0.4,1.7,0.6c1.3,0.3,2.3,0.6,2.9,1.1s1,1.2,1,2.1
		c0,1-0.4,1.7-1.2,2.3s-1.9,0.9-3.2,0.9c-1.4,0-2.5-0.4-3.3-1.1s-1.2-1.5-1.2-2.4l0-0.1h2.6c0,0.6,0.2,1,0.6,1.2s0.8,0.4,1.4,0.4
		c0.5,0,0.9-0.1,1.2-0.3S118.5,113.5,118.5,113.1z"/>
	<path class="st5" d="M126.1,102.9h-2.9v-2.1h2.9V102.9z M126.1,116h-2.9v-10.6h2.9V116z"/>
	<path class="st5" d="M132.9,114.1c0.5,0,0.9-0.1,1.2-0.4s0.4-0.7,0.4-1.2h2.6l0,0.1c0,1.1-0.4,2-1.2,2.7s-1.8,1.1-3,1.1
		c-1.6,0-2.8-0.5-3.6-1.5s-1.3-2.3-1.3-3.8v-0.3c0-1.5,0.4-2.8,1.3-3.8s2.1-1.5,3.6-1.5c1.3,0,2.3,0.4,3.1,1.1s1.2,1.7,1.1,2.9
		l0,0.1h-2.6c0-0.5-0.1-1-0.4-1.4s-0.7-0.5-1.2-0.5c-0.7,0-1.3,0.3-1.6,0.9s-0.5,1.3-0.5,2.3v0.3c0,0.9,0.2,1.7,0.5,2.3
		S132.2,114.1,132.9,114.1z"/>
</g>
<g class="st0">
	<path class="st3" d="M333.2,112.6c0-1.7,0.4-3,1.1-4c0.7-1,1.7-1.5,3-1.5c0.5,0,1,0.1,1.4,0.3c0.4,0.2,0.8,0.6,1.1,1v-5.8h2.9v15.2
		h-2.4l-0.2-1.3c-0.3,0.5-0.7,0.9-1.2,1.1c-0.5,0.3-1,0.4-1.6,0.4c-1.3,0-2.3-0.5-3-1.4c-0.7-1-1.1-2.2-1.1-3.8V112.6z M336.1,112.8
		c0,0.9,0.2,1.7,0.5,2.2s0.8,0.8,1.5,0.8c0.4,0,0.8-0.1,1.1-0.2c0.3-0.2,0.6-0.4,0.8-0.7v-4.5c-0.2-0.3-0.4-0.6-0.7-0.8
		s-0.7-0.3-1.1-0.3c-0.7,0-1.2,0.3-1.5,0.9s-0.5,1.4-0.5,2.4V112.8z"/>
	<path class="st3" d="M348,104.7h-2.9v-2.1h2.9V104.7z M348,117.8h-2.9v-10.6h2.9V117.8z"/>
	<path class="st3" d="M349.9,112.6c0-1.7,0.4-3,1.1-4s1.7-1.5,3-1.5c0.6,0,1.1,0.1,1.6,0.4s0.8,0.6,1.2,1.1l0.2-1.3h2.5v10.5
		c0,1.4-0.4,2.4-1.3,3.2s-2.2,1.1-3.8,1.1c-0.5,0-1.1-0.1-1.7-0.2c-0.6-0.1-1.2-0.3-1.7-0.6l0.5-2.1c0.4,0.2,0.9,0.4,1.4,0.5
		c0.5,0.1,1,0.2,1.5,0.2c0.8,0,1.4-0.2,1.7-0.5c0.4-0.3,0.6-0.8,0.6-1.5v-1c-0.3,0.4-0.7,0.7-1.1,0.9c-0.4,0.2-0.9,0.3-1.5,0.3
		c-1.3,0-2.3-0.5-3-1.4s-1.1-2.2-1.1-3.8V112.6z M352.7,112.8c0,0.9,0.2,1.7,0.5,2.2c0.3,0.5,0.8,0.8,1.5,0.8c0.4,0,0.8-0.1,1.1-0.2
		s0.5-0.4,0.7-0.7v-4.6c-0.2-0.3-0.4-0.6-0.7-0.8s-0.7-0.3-1.1-0.3c-0.7,0-1.2,0.3-1.5,0.9c-0.3,0.6-0.5,1.4-0.5,2.4V112.8z"/>
	<path class="st3" d="M364.6,104.7h-2.9v-2.1h2.9V104.7z M364.6,117.8h-2.9v-10.6h2.9V117.8z"/>
	<path class="st3" d="M370.4,104.6v2.6h1.8v2h-1.8v5.4c0,0.4,0.1,0.7,0.3,0.9c0.2,0.2,0.4,0.3,0.7,0.3c0.1,0,0.3,0,0.4,0
		c0.1,0,0.2,0,0.4-0.1l0.2,2.1c-0.3,0.1-0.6,0.2-0.8,0.2c-0.3,0-0.6,0.1-0.9,0.1c-1,0-1.7-0.3-2.3-0.8c-0.5-0.5-0.8-1.4-0.8-2.6
		v-5.4H366v-2h1.5v-2.6H370.4z"/>
	<path class="st3" d="M380.1,117.8c-0.1-0.2-0.2-0.5-0.3-0.8c-0.1-0.3-0.1-0.5-0.2-0.8c-0.3,0.5-0.7,0.9-1.2,1.3
		c-0.5,0.3-1.1,0.5-1.7,0.5c-1.1,0-2-0.3-2.6-0.9c-0.6-0.6-0.9-1.3-0.9-2.3c0-1,0.4-1.8,1.2-2.4c0.8-0.6,2-0.9,3.5-0.9h1.6v-0.8
		c0-0.5-0.1-0.9-0.4-1.2c-0.3-0.3-0.7-0.4-1.2-0.4c-0.5,0-0.8,0.1-1.1,0.3c-0.3,0.2-0.4,0.5-0.4,0.9h-2.7l0-0.1
		c0-0.9,0.3-1.7,1.2-2.3c0.8-0.6,1.9-1,3.2-1c1.3,0,2.3,0.3,3.1,1c0.8,0.6,1.2,1.6,1.2,2.7v4.4c0,0.5,0,1,0.1,1.4
		c0.1,0.4,0.2,0.9,0.4,1.3H380.1z M377.5,115.9c0.5,0,0.9-0.1,1.3-0.4s0.7-0.5,0.8-0.9v-1.5h-1.6c-0.6,0-1.1,0.1-1.4,0.4
		c-0.3,0.3-0.5,0.7-0.5,1.1c0,0.4,0.1,0.6,0.3,0.9C376.8,115.8,377.1,115.9,377.5,115.9z"/>
	<path class="st3" d="M387.7,117.8h-2.9v-15.2h2.9V117.8z"/>
</g>
<g class="st0">
	<path class="st4" d="M398.6,142.6c0-0.2-0.1-0.3-0.3-0.5s-0.5-0.3-1-0.4c-0.7-0.1-1.3-0.4-1.7-0.7s-0.6-0.7-0.6-1.2
		c0-0.5,0.2-1,0.7-1.4s1.1-0.6,1.8-0.6c0.8,0,1.4,0.2,1.9,0.6s0.7,0.9,0.7,1.4l0,0h-1.7c0-0.3-0.1-0.5-0.2-0.6s-0.4-0.2-0.7-0.2
		c-0.3,0-0.5,0.1-0.7,0.2s-0.2,0.3-0.2,0.5c0,0.2,0.1,0.4,0.2,0.5s0.5,0.2,1,0.3c0.8,0.2,1.4,0.4,1.7,0.7s0.6,0.7,0.6,1.3
		c0,0.6-0.2,1-0.7,1.4s-1.1,0.5-1.9,0.5c-0.8,0-1.5-0.2-2-0.6s-0.7-0.9-0.7-1.5l0,0h1.6c0,0.3,0.1,0.6,0.3,0.7s0.5,0.2,0.8,0.2
		c0.3,0,0.6-0.1,0.7-0.2S398.6,142.8,398.6,142.6z"/>
	<path class="st4" d="M407.1,141.4c0,0.9-0.2,1.7-0.7,2.3s-1,0.9-1.8,0.9c-0.3,0-0.6-0.1-0.9-0.2s-0.5-0.3-0.7-0.5v3h-1.7V138h1.5
		l0.1,0.8c0.2-0.3,0.4-0.5,0.7-0.6s0.6-0.2,0.9-0.2c0.8,0,1.4,0.3,1.8,0.9s0.7,1.4,0.7,2.4V141.4z M405.4,141.3
		c0-0.6-0.1-1.1-0.3-1.5s-0.5-0.6-0.9-0.6c-0.3,0-0.5,0.1-0.7,0.2s-0.3,0.3-0.4,0.5v2.8c0.1,0.2,0.2,0.3,0.4,0.4s0.4,0.1,0.7,0.1
		c0.4,0,0.7-0.2,0.9-0.5s0.3-0.8,0.3-1.3V141.3z"/>
	<path class="st4" d="M407.9,141.2c0-0.9,0.3-1.7,0.8-2.3s1.3-0.9,2.2-0.9c0.9,0,1.7,0.3,2.2,0.9s0.8,1.4,0.8,2.3v0.1
		c0,1-0.3,1.7-0.8,2.3s-1.3,0.9-2.2,0.9c-0.9,0-1.7-0.3-2.2-0.9s-0.8-1.4-0.8-2.3V141.2z M409.6,141.3c0,0.6,0.1,1,0.3,1.4
		s0.5,0.5,1,0.5c0.4,0,0.8-0.2,1-0.5s0.3-0.8,0.3-1.4v-0.1c0-0.6-0.1-1-0.3-1.4s-0.5-0.5-1-0.5c-0.4,0-0.8,0.2-1,0.5
		s-0.3,0.8-0.3,1.4V141.3z"/>
	<path class="st4" d="M418.3,139.5l-0.6,0c-0.3,0-0.5,0.1-0.6,0.2s-0.3,0.3-0.4,0.4v4.3h-1.7V138h1.6l0.1,0.9
		c0.1-0.3,0.3-0.6,0.6-0.8s0.5-0.3,0.8-0.3c0.1,0,0.2,0,0.2,0s0.1,0,0.2,0L418.3,139.5z"/>
	<path class="st4" d="M421.3,136.5v1.6h1.1v1.2h-1.1v3.2c0,0.2,0.1,0.4,0.2,0.5s0.2,0.2,0.4,0.2c0.1,0,0.2,0,0.2,0s0.1,0,0.2,0
		l0.1,1.2c-0.2,0.1-0.3,0.1-0.5,0.1s-0.3,0-0.5,0c-0.6,0-1-0.2-1.4-0.5s-0.5-0.8-0.5-1.5v-3.2h-0.9V138h0.9v-1.6H421.3z"/>
	<path class="st4" d="M426.9,142.6c0-0.2-0.1-0.3-0.3-0.5s-0.5-0.3-1-0.4c-0.7-0.1-1.3-0.4-1.7-0.7s-0.6-0.7-0.6-1.2
		c0-0.5,0.2-1,0.7-1.4s1.1-0.6,1.8-0.6c0.8,0,1.4,0.2,1.9,0.6s0.7,0.9,0.7,1.4l0,0h-1.7c0-0.3-0.1-0.5-0.2-0.6s-0.4-0.2-0.7-0.2
		c-0.3,0-0.5,0.1-0.7,0.2s-0.2,0.3-0.2,0.5c0,0.2,0.1,0.4,0.2,0.5s0.5,0.2,1,0.3c0.8,0.2,1.4,0.4,1.7,0.7s0.6,0.7,0.6,1.3
		c0,0.6-0.2,1-0.7,1.4s-1.1,0.5-1.9,0.5c-0.8,0-1.5-0.2-2-0.6s-0.7-0.9-0.7-1.5l0,0h1.6c0,0.3,0.1,0.6,0.3,0.7s0.5,0.2,0.8,0.2
		c0.3,0,0.6-0.1,0.7-0.2S426.9,142.8,426.9,142.6z"/>
</g>
<g class="st0">
	<path class="st3" d="M72.7,142.6c0,0.9-0.2,1.7-0.7,2.3s-1,0.9-1.8,0.9c-0.3,0-0.6-0.1-0.9-0.2s-0.5-0.3-0.7-0.5v3H67v-8.8h1.5
		l0.1,0.8c0.2-0.3,0.4-0.5,0.7-0.6s0.6-0.2,0.9-0.2c0.8,0,1.4,0.3,1.8,0.9s0.7,1.4,0.7,2.4V142.6z M71,142.5c0-0.6-0.1-1.1-0.3-1.5
		s-0.5-0.6-0.9-0.6c-0.3,0-0.5,0.1-0.7,0.2s-0.3,0.3-0.4,0.5v2.8c0.1,0.2,0.2,0.3,0.4,0.4s0.4,0.1,0.7,0.1c0.4,0,0.7-0.2,0.9-0.5
		s0.3-0.8,0.3-1.3V142.5z"/>
	<path class="st3" d="M77.1,140.8l-0.6,0c-0.3,0-0.5,0.1-0.6,0.2s-0.3,0.3-0.4,0.4v4.3h-1.7v-6.3h1.6l0.1,0.9
		c0.1-0.3,0.3-0.6,0.6-0.8s0.5-0.3,0.8-0.3c0.1,0,0.2,0,0.2,0s0.1,0,0.2,0L77.1,140.8z"/>
	<path class="st3" d="M77.6,142.4c0-0.9,0.3-1.7,0.8-2.3s1.3-0.9,2.2-0.9c0.9,0,1.7,0.3,2.2,0.9s0.8,1.4,0.8,2.3v0.1
		c0,1-0.3,1.7-0.8,2.3s-1.3,0.9-2.2,0.9c-0.9,0-1.7-0.3-2.2-0.9s-0.8-1.4-0.8-2.3V142.4z M79.4,142.5c0,0.6,0.1,1,0.3,1.4
		s0.5,0.5,1,0.5c0.4,0,0.8-0.2,1-0.5s0.3-0.8,0.3-1.4v-0.1c0-0.6-0.1-1-0.3-1.4s-0.5-0.5-1-0.5c-0.4,0-0.8,0.2-1,0.5
		s-0.3,0.8-0.3,1.4V142.5z"/>
	<path class="st3" d="M84.4,142.5c0-1,0.2-1.8,0.7-2.4s1-0.9,1.8-0.9c0.4,0,0.7,0.1,0.9,0.2s0.5,0.4,0.7,0.7l0.1-0.8h1.5v6.3
		c0,0.8-0.3,1.5-0.8,1.9s-1.3,0.7-2.3,0.7c-0.3,0-0.7,0-1-0.1s-0.7-0.2-1-0.4l0.3-1.3c0.3,0.1,0.5,0.2,0.8,0.3s0.6,0.1,0.9,0.1
		c0.5,0,0.8-0.1,1-0.3s0.3-0.5,0.3-0.9V145c-0.2,0.2-0.4,0.4-0.7,0.5s-0.5,0.2-0.9,0.2c-0.8,0-1.4-0.3-1.8-0.9s-0.7-1.3-0.7-2.3
		V142.5z M86.1,142.6c0,0.6,0.1,1,0.3,1.3s0.5,0.5,0.9,0.5c0.3,0,0.5,0,0.7-0.1s0.3-0.2,0.4-0.4v-2.7c-0.1-0.2-0.3-0.3-0.4-0.5
		s-0.4-0.2-0.7-0.2c-0.4,0-0.7,0.2-0.9,0.6s-0.3,0.9-0.3,1.5V142.6z"/>
	<path class="st3" d="M94.8,140.8l-0.6,0c-0.3,0-0.5,0.1-0.6,0.2s-0.3,0.3-0.4,0.4v4.3h-1.7v-6.3H93l0.1,0.9
		c0.1-0.3,0.3-0.6,0.6-0.8s0.5-0.3,0.8-0.3c0.1,0,0.2,0,0.2,0s0.1,0,0.2,0L94.8,140.8z"/>
	<path class="st3" d="M99.4,145.6c-0.1-0.1-0.1-0.3-0.2-0.5s-0.1-0.3-0.1-0.5c-0.2,0.3-0.4,0.6-0.7,0.8s-0.6,0.3-1,0.3
		c-0.7,0-1.2-0.2-1.5-0.5s-0.5-0.8-0.5-1.4c0-0.6,0.2-1.1,0.7-1.4s1.2-0.5,2.1-0.5h1v-0.5c0-0.3-0.1-0.5-0.2-0.7s-0.4-0.3-0.7-0.3
		c-0.3,0-0.5,0.1-0.6,0.2s-0.2,0.3-0.2,0.6h-1.6l0,0c0-0.5,0.2-1,0.7-1.4s1.1-0.6,1.9-0.6c0.8,0,1.4,0.2,1.8,0.6s0.7,0.9,0.7,1.6
		v2.6c0,0.3,0,0.6,0.1,0.8s0.1,0.5,0.2,0.8H99.4z M97.9,144.5c0.3,0,0.6-0.1,0.8-0.2s0.4-0.3,0.5-0.5v-0.9h-1
		c-0.4,0-0.6,0.1-0.8,0.3s-0.3,0.4-0.3,0.7c0,0.2,0.1,0.4,0.2,0.5S97.6,144.5,97.9,144.5z"/>
	<path class="st3" d="M103.7,139.3l0.1,0.8c0.2-0.3,0.5-0.5,0.8-0.7s0.7-0.2,1.1-0.2c0.4,0,0.8,0.1,1,0.3s0.5,0.5,0.7,0.8
		c0.2-0.3,0.4-0.6,0.8-0.8s0.7-0.3,1.1-0.3c0.6,0,1.1,0.2,1.5,0.7s0.5,1.1,0.5,2v3.8h-1.7v-3.8c0-0.5-0.1-0.9-0.2-1.1
		s-0.4-0.3-0.7-0.3c-0.2,0-0.5,0.1-0.6,0.2s-0.3,0.3-0.4,0.4c0,0.1,0,0.1,0,0.2s0,0.1,0,0.2v4.2h-1.7v-3.8c0-0.5-0.1-0.8-0.2-1.1
		s-0.4-0.3-0.7-0.3c-0.2,0-0.4,0-0.6,0.1s-0.3,0.2-0.4,0.4v4.6h-1.7v-6.3H103.7z"/>
	<path class="st3" d="M114.1,139.3l0.1,0.8c0.2-0.3,0.5-0.5,0.8-0.7s0.7-0.2,1.1-0.2c0.4,0,0.8,0.1,1,0.3s0.5,0.5,0.7,0.8
		c0.2-0.3,0.4-0.6,0.8-0.8s0.7-0.3,1.1-0.3c0.6,0,1.1,0.2,1.5,0.7s0.5,1.1,0.5,2v3.8h-1.7v-3.8c0-0.5-0.1-0.9-0.2-1.1
		s-0.4-0.3-0.7-0.3c-0.2,0-0.5,0.1-0.6,0.2s-0.3,0.3-0.4,0.4c0,0.1,0,0.1,0,0.2s0,0.1,0,0.2v4.2h-1.7v-3.8c0-0.5-0.1-0.8-0.2-1.1
		s-0.4-0.3-0.7-0.3c-0.2,0-0.4,0-0.6,0.1s-0.3,0.2-0.4,0.4v4.6h-1.7v-6.3H114.1z"/>
	<path class="st3" d="M124.7,137.8H123v-1.3h1.7V137.8z M124.7,145.6H123v-6.3h1.7V145.6z"/>
	<path class="st3" d="M127.7,139.3l0.1,0.9c0.2-0.3,0.5-0.6,0.8-0.8s0.7-0.3,1-0.3c0.6,0,1.1,0.2,1.5,0.6s0.5,1.1,0.5,2v3.9h-1.7
		v-3.9c0-0.5-0.1-0.8-0.2-1s-0.4-0.3-0.7-0.3c-0.3,0-0.5,0-0.7,0.1s-0.4,0.2-0.5,0.4v4.6h-1.7v-6.3H127.7z"/>
	<path class="st3" d="M132.6,142.5c0-1,0.2-1.8,0.7-2.4s1-0.9,1.8-0.9c0.4,0,0.7,0.1,0.9,0.2s0.5,0.4,0.7,0.7l0.1-0.8h1.5v6.3
		c0,0.8-0.3,1.5-0.8,1.9s-1.3,0.7-2.3,0.7c-0.3,0-0.7,0-1-0.1s-0.7-0.2-1-0.4l0.3-1.3c0.3,0.1,0.5,0.2,0.8,0.3s0.6,0.1,0.9,0.1
		c0.5,0,0.8-0.1,1-0.3s0.3-0.5,0.3-0.9V145c-0.2,0.2-0.4,0.4-0.7,0.5s-0.5,0.2-0.9,0.2c-0.8,0-1.4-0.3-1.8-0.9s-0.7-1.3-0.7-2.3
		V142.5z M134.3,142.6c0,0.6,0.1,1,0.3,1.3s0.5,0.5,0.9,0.5c0.3,0,0.5,0,0.7-0.1s0.3-0.2,0.4-0.4v-2.7c-0.1-0.2-0.3-0.3-0.4-0.5
		s-0.4-0.2-0.7-0.2c-0.4,0-0.7,0.2-0.9,0.6s-0.3,0.9-0.3,1.5V142.6z"/>
</g>
<g class="st0">
	<path class="st1" d="M145.5,80.2l0.1,1.3c0.3-0.5,0.7-0.8,1.1-1.1s1-0.4,1.6-0.4c0.6,0,1.1,0.1,1.6,0.4s0.8,0.7,1,1.2
		c0.3-0.5,0.7-0.9,1.1-1.2s1-0.4,1.7-0.4c0.9,0,1.7,0.3,2.2,1c0.5,0.7,0.8,1.7,0.8,3.1v5.7h-2.6v-5.7c0-0.8-0.1-1.3-0.4-1.6
		c-0.2-0.3-0.6-0.4-1-0.4c-0.4,0-0.7,0.1-0.9,0.2s-0.5,0.4-0.6,0.7c0,0.1,0,0.2,0,0.3c0,0.1,0,0.2,0,0.2v6.3h-2.6v-5.7
		c0-0.7-0.1-1.3-0.4-1.6c-0.2-0.3-0.6-0.5-1.1-0.5c-0.3,0-0.7,0.1-0.9,0.2c-0.3,0.1-0.5,0.3-0.6,0.6v7h-2.6v-9.5H145.5z"/>
	<path class="st1" d="M162.8,89.9c-1.4,0-2.5-0.4-3.3-1.3c-0.8-0.9-1.2-2-1.2-3.4v-0.4c0-1.4,0.4-2.6,1.2-3.5
		c0.8-0.9,1.8-1.4,3.2-1.4c1.3,0,2.3,0.4,2.9,1.2c0.7,0.8,1,1.8,1,3.2v1.3H161l0,0.1c0,0.7,0.2,1.2,0.6,1.6s0.9,0.6,1.6,0.6
		c0.6,0,1.1-0.1,1.5-0.2c0.4-0.1,0.8-0.3,1.2-0.5l0.7,1.6c-0.4,0.3-0.9,0.6-1.6,0.8S163.6,89.9,162.8,89.9z M162.7,82
		c-0.5,0-0.9,0.2-1.2,0.5c-0.3,0.4-0.4,0.8-0.5,1.4l0,0h3.1v-0.2c0-0.6-0.1-1-0.3-1.3C163.6,82.2,163.2,82,162.7,82z"/>
	<path class="st1" d="M170.5,80.2l0.1,1.4c0.3-0.5,0.7-0.9,1.2-1.1s1-0.4,1.6-0.4c1,0,1.7,0.3,2.3,0.9c0.5,0.6,0.8,1.6,0.8,2.9v5.8
		h-2.6v-5.8c0-0.7-0.1-1.2-0.4-1.4c-0.2-0.3-0.6-0.4-1.1-0.4c-0.4,0-0.7,0.1-1,0.2c-0.3,0.1-0.5,0.3-0.7,0.6v6.9h-2.6v-9.5H170.5z"
		/>
	<path class="st1" d="M181.4,77.9v2.3h1.6V82h-1.6v4.9c0,0.4,0.1,0.6,0.2,0.8c0.2,0.2,0.4,0.2,0.6,0.2c0.1,0,0.3,0,0.4,0
		c0.1,0,0.2,0,0.3-0.1l0.2,1.9c-0.3,0.1-0.5,0.2-0.8,0.2c-0.2,0-0.5,0.1-0.8,0.1c-0.9,0-1.6-0.2-2-0.7c-0.5-0.5-0.7-1.3-0.7-2.3V82
		h-1.4v-1.8h1.4v-2.3H181.4z"/>
	<path class="st1" d="M184.2,84.9c0-1.4,0.4-2.6,1.2-3.5c0.8-0.9,1.9-1.4,3.3-1.4c1.4,0,2.5,0.5,3.3,1.4c0.8,0.9,1.2,2.1,1.2,3.5
		v0.2c0,1.4-0.4,2.6-1.2,3.5c-0.8,0.9-1.9,1.4-3.3,1.4c-1.4,0-2.5-0.5-3.3-1.4c-0.8-0.9-1.2-2.1-1.2-3.5V84.9z M186.8,85.1
		c0,0.9,0.2,1.6,0.5,2.1c0.3,0.5,0.8,0.8,1.5,0.8c0.7,0,1.1-0.3,1.5-0.8c0.3-0.5,0.5-1.2,0.5-2.1v-0.2c0-0.8-0.2-1.5-0.5-2.1
		c-0.3-0.5-0.8-0.8-1.5-0.8c-0.7,0-1.1,0.3-1.5,0.8c-0.3,0.5-0.5,1.2-0.5,2.1V85.1z"/>
	<path class="st1" d="M199.8,82.4l-0.9,0c-0.4,0-0.7,0.1-0.9,0.2c-0.2,0.2-0.4,0.4-0.6,0.7v6.4h-2.6v-9.5h2.4l0.1,1.4
		c0.2-0.5,0.5-0.9,0.9-1.2s0.8-0.4,1.2-0.4c0.1,0,0.2,0,0.4,0c0.1,0,0.2,0,0.3,0.1L199.8,82.4z"/>
</g>
</svg>
