<?xml version="1.0" encoding="utf-8"?>
<!-- Generator: Adobe Illustrator 22.0.1, SVG Export Plug-In . SVG Version: 6.00 Build 0)  -->
<svg version="1.1" id="Layer_1" xmlns="http://www.w3.org/2000/svg" xmlns:xlink="http://www.w3.org/1999/xlink" x="0px" y="0px"
	 viewBox="0 0 579.6 200.9" style="enable-background:new 0 0 579.6 200.9;" xml:space="preserve">
<style type="text/css">
	.st0{enable-background:new    ;}
	.st1{fill:#00A5FF;}
	.st2{fill:#98CFFF;}
	.st3{fill:#00D0FF;}
	.st4{fill:#2A3E52;}
	.st5{fill:#006ECE;}
</style>
<g>
	<g class="st0">
		<path class="st1" d="M371.4,93.4c0-0.8-0.4-1.4-1.1-2c-0.7-0.5-2.1-1-4.1-1.4c-3-0.6-5.3-1.5-6.9-2.7c-1.6-1.2-2.3-2.9-2.3-5
			c0-2.2,0.9-4.1,2.8-5.6c1.9-1.6,4.4-2.3,7.5-2.3c3.3,0,5.9,0.8,7.8,2.3c2,1.6,2.9,3.5,2.8,5.8l0,0.1h-6.7c0-1-0.3-1.9-1-2.5
			c-0.7-0.7-1.6-1-2.9-1c-1.1,0-2,0.3-2.6,0.8c-0.7,0.6-1,1.2-1,2c0,0.8,0.3,1.4,1,1.9c0.7,0.5,2,0.9,4.1,1.3
			c3.2,0.6,5.5,1.6,7.1,2.8c1.5,1.2,2.3,2.9,2.3,5.1c0,2.3-1,4.2-3,5.7c-2,1.5-4.6,2.2-7.9,2.2c-3.4,0-6.1-0.9-8.1-2.6
			c-2-1.7-2.9-3.7-2.8-5.9l0-0.1h6.4c0,1.4,0.5,2.4,1.4,3c0.9,0.6,2,0.9,3.4,0.9c1.3,0,2.3-0.3,2.9-0.8
			C371.1,95,371.4,94.3,371.4,93.4z"/>
		<path class="st1" d="M389.4,78c0.8-1.2,1.8-2.1,3-2.7c1.2-0.7,2.5-1,3.9-1c2.7,0,4.8,0.9,6.3,2.7c1.5,1.8,2.3,4.5,2.3,8.3v15.3
			H398V85.2c0-2-0.3-3.4-1-4.2c-0.6-0.8-1.6-1.2-2.9-1.2c-1.1,0-2,0.2-2.8,0.5c-0.8,0.3-1.4,0.8-1.9,1.5v18.8h-6.9V63.4h6.9V78z"/>
		<path class="st1" d="M425.3,100.5c-0.3-0.6-0.5-1.2-0.7-1.9c-0.2-0.7-0.3-1.3-0.4-2c-0.7,1.3-1.7,2.3-2.8,3.1
			c-1.2,0.8-2.6,1.2-4.2,1.2c-2.7,0-4.8-0.7-6.2-2.1c-1.5-1.4-2.2-3.3-2.2-5.7c0-2.5,1-4.5,2.9-5.9c1.9-1.4,4.8-2.1,8.5-2.1h3.9v-2
			c0-1.2-0.3-2.2-1-2.9c-0.6-0.7-1.6-1-2.9-1c-1.1,0-2,0.3-2.6,0.8c-0.6,0.5-0.9,1.3-0.9,2.2h-6.7l0-0.1c-0.1-2.2,0.8-4,2.8-5.6
			c2-1.6,4.6-2.4,7.9-2.4c3.1,0,5.6,0.8,7.5,2.3c1.9,1.6,2.9,3.8,2.9,6.7v10.6c0,1.2,0.1,2.3,0.3,3.4c0.2,1.1,0.5,2.1,0.9,3.2H425.3
			z M419,95.9c1.2,0,2.3-0.3,3.2-0.9c1-0.6,1.6-1.3,2-2.1v-3.6h-3.9c-1.5,0-2.6,0.4-3.3,1.1c-0.8,0.7-1.1,1.6-1.1,2.7
			c0,0.9,0.3,1.6,0.8,2.1C417.2,95.6,418,95.9,419,95.9z"/>
		<path class="st1" d="M449.9,80.7l-2.5-0.1c-1,0-1.9,0.2-2.5,0.6c-0.7,0.4-1.2,1-1.5,1.8v17.4h-6.9V74.8h6.4l0.3,3.8
			c0.6-1.3,1.4-2.4,2.3-3.2c1-0.8,2.1-1.1,3.3-1.1c0.3,0,0.7,0,1,0.1c0.3,0.1,0.6,0.1,0.9,0.2L449.9,80.7z"/>
		<path class="st1" d="M464.2,101c-3.8,0-6.8-1.2-9-3.5c-2.2-2.4-3.2-5.4-3.2-9.1v-1c0-3.9,1-7,3.1-9.5c2.1-2.5,5-3.7,8.6-3.7
			c3.5,0,6.1,1.1,8,3.2c1.8,2.1,2.8,5,2.8,8.6v3.6h-15.3l-0.1,0.1c0.1,1.8,0.6,3.2,1.6,4.3c1,1.1,2.4,1.6,4.3,1.6
			c1.6,0,2.9-0.2,4-0.5c1.1-0.3,2.2-0.8,3.4-1.5l1.9,4.3c-1,0.8-2.4,1.5-4.2,2.1C468.2,100.7,466.3,101,464.2,101z M463.7,79.6
			c-1.4,0-2.5,0.5-3.2,1.4c-0.8,1-1.2,2.2-1.4,3.8l0,0.1h8.5v-0.5c0-1.5-0.3-2.7-0.9-3.6C466.1,80.1,465.1,79.6,463.7,79.6z"/>
	</g>
	<g class="st0">
		<path class="st2" d="M245.9,97.9c0.9,0,1.7-0.3,2.2-0.8c0.5-0.6,0.8-1.3,0.8-2.2h4.9l0,0.1c0,2-0.7,3.7-2.2,5
			c-1.5,1.3-3.4,2-5.7,2c-2.9,0-5.2-0.9-6.8-2.8c-1.6-1.9-2.4-4.3-2.4-7.2v-0.5c0-2.9,0.8-5.3,2.4-7.2c1.6-1.9,3.8-2.8,6.8-2.8
			c2.4,0,4.4,0.7,5.8,2.1s2.2,3.2,2.1,5.5l0,0.1H249c0-1-0.3-1.9-0.8-2.6c-0.5-0.7-1.3-1-2.3-1c-1.4,0-2.4,0.6-2.9,1.7
			c-0.6,1.1-0.9,2.5-0.9,4.2V92c0,1.8,0.3,3.2,0.9,4.3C243.6,97.3,244.5,97.9,245.9,97.9z"/>
		<path class="st2" d="M256.2,91.5c0-3,0.8-5.4,2.5-7.3c1.6-1.9,3.9-2.8,6.8-2.8c2.9,0,5.2,0.9,6.9,2.8c1.7,1.9,2.5,4.3,2.5,7.3v0.4
			c0,3-0.8,5.4-2.5,7.3c-1.7,1.9-3.9,2.8-6.9,2.8c-2.9,0-5.2-0.9-6.9-2.8c-1.7-1.9-2.5-4.3-2.5-7.3V91.5z M261.5,91.9
			c0,1.8,0.3,3.3,1,4.3c0.6,1.1,1.7,1.6,3.1,1.6c1.4,0,2.4-0.5,3-1.6c0.6-1.1,1-2.5,1-4.3v-0.4c0-1.8-0.3-3.2-1-4.3
			c-0.6-1.1-1.7-1.7-3.1-1.7c-1.4,0-2.4,0.6-3,1.7c-0.6,1.1-1,2.5-1,4.3V91.9z"/>
		<path class="st2" d="M279.5,101.6v-16h-2.9v-3.8h2.9v-2.2c0-2.2,0.6-3.9,1.9-5.1c1.3-1.2,3.1-1.8,5.4-1.8c0.5,0,0.9,0,1.4,0.1
			c0.5,0.1,1,0.2,1.5,0.3l-0.5,4c-0.3,0-0.6-0.1-0.9-0.1c-0.3,0-0.6-0.1-1-0.1c-0.9,0-1.5,0.2-2,0.7c-0.4,0.5-0.7,1.2-0.7,2v2.2h3.8
			v3.8h-3.8v16H279.5z"/>
		<path class="st2" d="M292.6,101.6v-16h-2.9v-3.8h2.9v-2.2c0-2.2,0.6-3.9,1.9-5.1c1.3-1.2,3.1-1.8,5.4-1.8c0.5,0,0.9,0,1.4,0.1
			c0.5,0.1,1,0.2,1.5,0.3l-0.5,4c-0.3,0-0.6-0.1-0.9-0.1c-0.3,0-0.6-0.1-1-0.1c-0.9,0-1.5,0.2-2,0.7c-0.4,0.5-0.7,1.2-0.7,2v2.2h3.8
			v3.8H298v16H292.6z"/>
		<path class="st2" d="M312.4,102c-3,0-5.3-0.9-6.9-2.7c-1.7-1.8-2.5-4.1-2.5-7v-0.7c0-3,0.8-5.4,2.4-7.3c1.6-1.9,3.8-2.8,6.6-2.8
			c2.7,0,4.7,0.8,6.1,2.4c1.4,1.6,2.1,3.8,2.1,6.6v2.8h-11.8l-0.1,0.1c0.1,1.4,0.5,2.5,1.2,3.3s1.8,1.3,3.3,1.3c1.2,0,2.2-0.1,3-0.4
			c0.8-0.2,1.7-0.6,2.6-1.1l1.4,3.3c-0.8,0.6-1.9,1.2-3.2,1.6C315.5,101.8,314,102,312.4,102z M312.1,85.6c-1.1,0-1.9,0.4-2.5,1.1
			c-0.6,0.7-0.9,1.7-1.1,2.9l0,0.1h6.5v-0.4c0-1.2-0.2-2.1-0.7-2.7C313.9,85.9,313.1,85.6,312.1,85.6z"/>
		<path class="st2" d="M332,102c-3,0-5.3-0.9-6.9-2.7c-1.7-1.8-2.5-4.1-2.5-7v-0.7c0-3,0.8-5.4,2.4-7.3c1.6-1.9,3.8-2.8,6.6-2.8
			c2.7,0,4.7,0.8,6.1,2.4c1.4,1.6,2.1,3.8,2.1,6.6v2.8h-11.8l-0.1,0.1c0.1,1.4,0.5,2.5,1.2,3.3c0.7,0.8,1.8,1.3,3.3,1.3
			c1.2,0,2.2-0.1,3-0.4c0.8-0.2,1.7-0.6,2.6-1.1l1.4,3.3c-0.8,0.6-1.9,1.2-3.2,1.6C335.1,101.8,333.6,102,332,102z M331.7,85.6
			c-1.1,0-1.9,0.4-2.5,1.1c-0.6,0.7-0.9,1.7-1.1,2.9l0,0.1h6.5v-0.4c0-1.2-0.2-2.1-0.7-2.7C333.5,85.9,332.7,85.6,331.7,85.6z"/>
	</g>
	<g class="st0">
		<path class="st2" d="M299,58.7c0-2.7,0.6-4.9,1.7-6.5c1.2-1.6,2.8-2.5,4.9-2.5c0.8,0,1.6,0.2,2.3,0.6c0.7,0.4,1.3,0.9,1.8,1.6
			v-9.3h4.6v24.6h-3.9L310,65c-0.5,0.8-1.2,1.4-1.9,1.8s-1.6,0.6-2.5,0.6c-2.1,0-3.7-0.8-4.9-2.3c-1.2-1.5-1.7-3.6-1.7-6.1V58.7z
			 M303.5,59.1c0,1.5,0.3,2.7,0.8,3.5c0.5,0.9,1.3,1.3,2.5,1.3c0.7,0,1.2-0.1,1.7-0.4c0.5-0.3,0.9-0.7,1.2-1.2V55
			c-0.3-0.5-0.7-1-1.2-1.3c-0.5-0.3-1.1-0.4-1.7-0.4c-1.1,0-1.9,0.5-2.5,1.5c-0.5,1-0.8,2.3-0.8,3.9V59.1z"/>
		<path class="st2" d="M317.1,58.4c0-2.5,0.7-4.6,2.1-6.2c1.4-1.6,3.4-2.4,5.9-2.4c2.5,0,4.5,0.8,5.9,2.4c1.4,1.6,2.1,3.7,2.1,6.2
			v0.3c0,2.6-0.7,4.6-2.1,6.3c-1.4,1.6-3.4,2.4-5.9,2.4c-2.5,0-4.5-0.8-5.9-2.4c-1.4-1.6-2.1-3.7-2.1-6.3V58.4z M321.7,58.8
			c0,1.6,0.3,2.8,0.8,3.7c0.5,0.9,1.4,1.4,2.6,1.4c1.2,0,2.1-0.5,2.6-1.4c0.6-0.9,0.8-2.2,0.8-3.7v-0.3c0-1.5-0.3-2.7-0.8-3.7
			c-0.6-1-1.4-1.4-2.6-1.4c-1.2,0-2.1,0.5-2.6,1.4c-0.6,1-0.8,2.2-0.8,3.7V58.8z"/>
		<path class="st2" d="M335.4,58.7c0-2.7,0.6-4.9,1.7-6.5c1.2-1.6,2.8-2.5,4.9-2.5c1,0,1.8,0.2,2.5,0.6c0.7,0.4,1.3,1,1.9,1.8
			l0.4-2.2h4V67c0,2.2-0.7,3.9-2.2,5.1c-1.4,1.2-3.5,1.8-6.1,1.8c-0.9,0-1.8-0.1-2.7-0.4c-1-0.2-1.9-0.6-2.7-1l0.8-3.4
			c0.7,0.3,1.4,0.6,2.2,0.8c0.7,0.2,1.6,0.3,2.4,0.3c1.3,0,2.2-0.3,2.8-0.8c0.6-0.5,0.9-1.3,0.9-2.5v-1.5c-0.5,0.6-1.1,1.1-1.8,1.5
			c-0.7,0.3-1.5,0.5-2.3,0.5c-2.1,0-3.7-0.8-4.9-2.3c-1.2-1.5-1.7-3.6-1.7-6.1V58.7z M340,59.1c0,1.5,0.2,2.7,0.7,3.5
			c0.5,0.9,1.3,1.3,2.4,1.3c0.7,0,1.3-0.1,1.8-0.4c0.5-0.3,0.9-0.6,1.2-1.1V55c-0.3-0.5-0.7-0.9-1.2-1.2c-0.5-0.3-1.1-0.4-1.8-0.4
			c-1.1,0-1.9,0.5-2.5,1.5c-0.5,1-0.8,2.3-0.8,3.9V59.1z"/>
	</g>
	<g class="st0">
		<path class="st1" d="M381.2,113.7l0.2,2.2c0.5-0.8,1.1-1.4,1.8-1.8c0.7-0.4,1.6-0.6,2.5-0.6c1.5,0,2.7,0.5,3.6,1.5
			c0.9,1,1.3,2.5,1.3,4.6v9.2h-4.1v-9.2c0-1.1-0.2-1.8-0.6-2.3c-0.4-0.4-0.9-0.7-1.7-0.7c-0.6,0-1.1,0.1-1.6,0.3
			c-0.5,0.2-0.8,0.5-1.1,0.9v10.9h-4.1v-15H381.2z"/>
		<path class="st1" d="M400.1,129.1c-2.2,0-4-0.7-5.3-2.1c-1.3-1.4-1.9-3.2-1.9-5.3v-0.6c0-2.3,0.6-4.1,1.8-5.5
			c1.2-1.4,2.9-2.2,5-2.1c2,0,3.6,0.6,4.7,1.9c1.1,1.2,1.6,2.9,1.6,5v2.1h-9l0,0.1c0.1,1,0.4,1.9,0.9,2.5c0.6,0.6,1.4,1,2.5,1
			c0.9,0,1.7-0.1,2.3-0.3c0.6-0.2,1.3-0.5,2-0.8l1.1,2.5c-0.6,0.5-1.4,0.9-2.4,1.2C402.4,128.9,401.3,129.1,400.1,129.1z
			 M399.8,116.6c-0.8,0-1.4,0.3-1.9,0.8c-0.4,0.6-0.7,1.3-0.8,2.2l0,0.1h5v-0.3c0-0.9-0.2-1.6-0.5-2.1
			C401.2,116.9,400.6,116.6,399.8,116.6z"/>
		<path class="st1" d="M413.3,110.1v3.7h2.5v2.9h-2.5v7.7c0,0.6,0.1,1,0.4,1.3c0.2,0.3,0.6,0.4,1,0.4c0.2,0,0.4,0,0.6,0
			c0.2,0,0.3-0.1,0.5-0.1l0.3,2.9c-0.4,0.1-0.8,0.2-1.2,0.3c-0.4,0.1-0.8,0.1-1.3,0.1c-1.4,0-2.5-0.4-3.2-1.2
			c-0.8-0.8-1.1-2-1.1-3.7v-7.7h-2.2v-2.9h2.2v-3.7H413.3z"/>
		<path class="st1" d="M431.4,123.2L431.4,123.2l1.9-9.5h3.9l-3.8,15h-3.4l-2.8-8.7h-0.1l-2.8,8.7H421l-3.8-15h3.9l1.8,9.4h0.1
			l2.8-9.4h2.7L431.4,123.2z"/>
		<path class="st1" d="M438.7,121.1c0-2.2,0.6-4.1,1.9-5.5c1.3-1.4,3-2.1,5.2-2.1c2.2,0,4,0.7,5.2,2.1c1.3,1.4,1.9,3.3,1.9,5.5v0.3
			c0,2.3-0.6,4.1-1.9,5.5c-1.3,1.4-3,2.1-5.2,2.1c-2.2,0-4-0.7-5.2-2.1c-1.3-1.4-1.9-3.3-1.9-5.5V121.1z M442.7,121.4
			c0,1.4,0.2,2.5,0.7,3.3c0.5,0.8,1.3,1.2,2.3,1.2c1,0,1.8-0.4,2.3-1.3c0.5-0.8,0.7-1.9,0.7-3.3v-0.3c0-1.3-0.2-2.4-0.7-3.3
			c-0.5-0.8-1.3-1.3-2.3-1.3c-1,0-1.8,0.4-2.3,1.3c-0.5,0.8-0.7,1.9-0.7,3.3V121.4z"/>
		<path class="st1" d="M463.3,117.2l-1.5,0c-0.6,0-1.1,0.1-1.5,0.4c-0.4,0.3-0.7,0.6-0.9,1.1v10.2h-4v-15h3.8l0.2,2.2
			c0.4-0.8,0.8-1.4,1.4-1.8c0.6-0.4,1.2-0.7,1.9-0.7c0.2,0,0.4,0,0.6,0c0.2,0,0.3,0.1,0.5,0.1L463.3,117.2z"/>
		<path class="st1" d="M470.5,122.5h-1v6.3h-4.1v-21.7h4.1v12.3h0.9l3.6-5.7h4.7l-4.9,6.9l5.6,8.2h-4.7L470.5,122.5z"/>
	</g>
	<g class="st0">
		<path class="st3" d="M177.7,59.9v3.7h2.5v2.9h-2.5v7.7c0,0.6,0.1,1,0.4,1.3c0.2,0.3,0.6,0.4,1,0.4c0.2,0,0.4,0,0.6,0
			c0.2,0,0.3-0.1,0.5-0.1l0.3,2.9c-0.4,0.1-0.8,0.2-1.2,0.3c-0.4,0.1-0.8,0.1-1.3,0.1c-1.4,0-2.5-0.4-3.2-1.2
			c-0.8-0.8-1.1-2-1.1-3.7v-7.7h-2.2v-2.9h2.2v-3.7H177.7z"/>
		<path class="st3" d="M189.2,78.9c-2.2,0-4-0.7-5.3-2.1c-1.3-1.4-1.9-3.2-1.9-5.3V71c0-2.3,0.6-4.1,1.8-5.5c1.2-1.4,2.9-2.2,5-2.1
			c2,0,3.6,0.6,4.7,1.9c1.1,1.2,1.6,2.9,1.6,5v2.1h-9l0,0.1c0.1,1,0.4,1.9,0.9,2.5c0.6,0.6,1.4,1,2.5,1c0.9,0,1.7-0.1,2.3-0.3
			c0.6-0.2,1.3-0.5,2-0.8l1.1,2.5c-0.6,0.5-1.4,0.9-2.4,1.2C191.6,78.8,190.4,78.9,189.2,78.9z M189,66.5c-0.8,0-1.4,0.3-1.9,0.8
			c-0.4,0.6-0.7,1.3-0.8,2.2l0,0.1h5v-0.3c0-0.9-0.2-1.6-0.5-2.1C190.4,66.7,189.8,66.5,189,66.5z"/>
		<path class="st3" d="M203.9,75.8c0.7,0,1.3-0.2,1.7-0.6c0.4-0.4,0.6-1,0.6-1.7h3.7l0,0.1c0,1.5-0.5,2.8-1.7,3.8
			c-1.2,1-2.6,1.5-4.3,1.5c-2.2,0-3.9-0.7-5.2-2.1c-1.2-1.4-1.8-3.2-1.8-5.5v-0.4c0-2.2,0.6-4,1.8-5.5c1.2-1.4,2.9-2.1,5.1-2.1
			c1.8,0,3.3,0.5,4.4,1.6c1.1,1.1,1.7,2.4,1.6,4.2l0,0.1h-3.7c0-0.8-0.2-1.4-0.6-1.9c-0.4-0.5-1-0.8-1.7-0.8c-1,0-1.8,0.4-2.2,1.3
			c-0.4,0.8-0.7,1.9-0.7,3.2v0.4c0,1.3,0.2,2.4,0.7,3.2C202.1,75.4,202.8,75.8,203.9,75.8z"/>
		<path class="st3" d="M216.2,65.5c0.5-0.7,1.1-1.2,1.7-1.6c0.7-0.4,1.4-0.6,2.3-0.6c1.6,0,2.8,0.5,3.7,1.6c0.9,1,1.3,2.7,1.3,4.8
			v8.9h-4.1v-9c0-1.2-0.2-2-0.6-2.5c-0.4-0.5-0.9-0.7-1.7-0.7c-0.6,0-1.2,0.1-1.6,0.3c-0.5,0.2-0.8,0.5-1.1,0.9v11h-4.1V57h4.1V65.5
			z"/>
	</g>
	<g class="st0">
		<path class="st2" d="M146.1,153c0.6,0,1.1-0.2,1.5-0.5c0.4-0.4,0.5-0.9,0.5-1.5h3.2l0,0.1c0,1.3-0.5,2.4-1.5,3.3
			c-1,0.9-2.3,1.3-3.8,1.3c-1.9,0-3.4-0.6-4.5-1.9c-1.1-1.2-1.6-2.8-1.6-4.7v-0.4c0-1.9,0.5-3.5,1.6-4.7c1.1-1.2,2.5-1.9,4.5-1.9
			c1.6,0,2.9,0.5,3.9,1.4s1.4,2.1,1.4,3.6l0,0.1h-3.2c0-0.7-0.2-1.2-0.5-1.7c-0.4-0.4-0.9-0.7-1.5-0.7c-0.9,0-1.6,0.4-1.9,1.1
			c-0.4,0.7-0.6,1.7-0.6,2.8v0.4c0,1.2,0.2,2.1,0.6,2.8C144.5,152.6,145.2,153,146.1,153z"/>
		<path class="st2" d="M152.9,148.8c0-1.9,0.5-3.5,1.6-4.8c1.1-1.2,2.6-1.9,4.5-1.9c1.9,0,3.4,0.6,4.5,1.9c1.1,1.2,1.6,2.8,1.6,4.8
			v0.3c0,2-0.5,3.6-1.6,4.8c-1.1,1.2-2.6,1.9-4.5,1.9c-1.9,0-3.4-0.6-4.5-1.9c-1.1-1.2-1.6-2.8-1.6-4.8V148.8z M156.4,149
			c0,1.2,0.2,2.1,0.6,2.9c0.4,0.7,1.1,1.1,2,1.1c0.9,0,1.6-0.4,2-1.1c0.4-0.7,0.6-1.7,0.6-2.9v-0.3c0-1.2-0.2-2.1-0.6-2.8
			c-0.4-0.7-1.1-1.1-2-1.1c-0.9,0-1.6,0.4-2,1.1c-0.4,0.7-0.6,1.7-0.6,2.8V149z"/>
		<path class="st2" d="M166.8,149c0-2.1,0.4-3.7,1.3-5c0.9-1.3,2.1-1.9,3.8-1.9c0.7,0,1.2,0.1,1.8,0.4c0.5,0.3,1,0.7,1.4,1.2v-7.2
			h3.5v18.8h-3l-0.3-1.6c-0.4,0.6-0.9,1.1-1.5,1.4c-0.6,0.3-1.2,0.5-1.9,0.5c-1.6,0-2.8-0.6-3.7-1.8c-0.9-1.2-1.3-2.7-1.3-4.7V149z
			 M170.3,149.3c0,1.1,0.2,2,0.6,2.7c0.4,0.7,1,1,1.9,1c0.5,0,1-0.1,1.3-0.3c0.4-0.2,0.7-0.5,0.9-0.9v-5.6c-0.2-0.4-0.5-0.7-0.9-1
			c-0.4-0.2-0.8-0.3-1.3-0.3c-0.9,0-1.5,0.4-1.9,1.1c-0.4,0.8-0.6,1.8-0.6,3V149.3z"/>
		<path class="st2" d="M187,155.7c-1.9,0-3.5-0.6-4.6-1.8c-1.1-1.2-1.6-2.7-1.6-4.6v-0.5c0-2,0.5-3.6,1.6-4.8
			c1.1-1.2,2.5-1.9,4.4-1.9c1.8,0,3.1,0.5,4,1.6c0.9,1.1,1.4,2.5,1.4,4.3v1.8h-7.8l0,0.1c0.1,0.9,0.3,1.6,0.8,2.2
			c0.5,0.6,1.2,0.8,2.2,0.8c0.8,0,1.5-0.1,2-0.2c0.6-0.2,1.1-0.4,1.7-0.7l1,2.2c-0.5,0.4-1.2,0.8-2.1,1.1S188,155.7,187,155.7z
			 M186.8,144.8c-0.7,0-1.3,0.2-1.6,0.7c-0.4,0.5-0.6,1.1-0.7,1.9l0,0.1h4.3v-0.3c0-0.8-0.2-1.4-0.5-1.8
			C188,145.1,187.5,144.8,186.8,144.8z"/>
	</g>
	<g class="st0">
		<path class="st4" d="M283.3,143.9c0-0.4-0.2-0.7-0.6-1c-0.4-0.3-1.1-0.5-2.1-0.7c-1.5-0.3-2.7-0.8-3.5-1.4
			c-0.8-0.6-1.2-1.5-1.2-2.5c0-1.1,0.5-2.1,1.4-2.9s2.2-1.2,3.8-1.2c1.7,0,3,0.4,4,1.2c1,0.8,1.5,1.8,1.4,2.9l0,0.1h-3.4
			c0-0.5-0.2-1-0.5-1.3c-0.3-0.3-0.8-0.5-1.5-0.5c-0.6,0-1,0.1-1.3,0.4c-0.3,0.3-0.5,0.6-0.5,1c0,0.4,0.2,0.7,0.5,1
			c0.3,0.3,1,0.5,2.1,0.7c1.6,0.3,2.8,0.8,3.6,1.4c0.8,0.6,1.2,1.5,1.2,2.6c0,1.2-0.5,2.1-1.5,2.9c-1,0.7-2.3,1.1-4,1.1
			c-1.7,0-3.1-0.4-4.1-1.3c-1-0.9-1.5-1.9-1.4-3l0-0.1h3.2c0,0.7,0.3,1.2,0.7,1.5s1,0.5,1.7,0.5c0.7,0,1.1-0.1,1.5-0.4
			C283.1,144.7,283.3,144.4,283.3,143.9z"/>
		<path class="st4" d="M294.4,145.1c0.6,0,1.1-0.2,1.5-0.5c0.4-0.4,0.5-0.9,0.5-1.5h3.2l0,0.1c0,1.3-0.5,2.4-1.5,3.3
			c-1,0.9-2.3,1.3-3.8,1.3c-1.9,0-3.4-0.6-4.5-1.9c-1.1-1.2-1.6-2.8-1.6-4.7v-0.4c0-1.9,0.5-3.5,1.6-4.7c1.1-1.2,2.5-1.9,4.5-1.9
			c1.6,0,2.9,0.5,3.9,1.4c1,0.9,1.4,2.1,1.4,3.6l0,0.1h-3.2c0-0.7-0.2-1.2-0.5-1.7c-0.4-0.4-0.9-0.7-1.5-0.7c-0.9,0-1.6,0.4-1.9,1.1
			c-0.4,0.7-0.6,1.7-0.6,2.8v0.4c0,1.2,0.2,2.1,0.6,2.8C292.8,144.7,293.5,145.1,294.4,145.1z"/>
		<path class="st4" d="M305.4,131.3h-3.5v-2.6h3.5V131.3z M305.4,147.5h-3.5v-13.1h3.5V147.5z"/>
		<path class="st4" d="M314,147.8c-1.9,0-3.5-0.6-4.6-1.8c-1.1-1.2-1.6-2.7-1.6-4.6v-0.5c0-2,0.5-3.6,1.6-4.8
			c1.1-1.2,2.5-1.9,4.4-1.9c1.8,0,3.1,0.5,4,1.6c0.9,1.1,1.4,2.5,1.4,4.3v1.8h-7.8l0,0.1c0.1,0.9,0.3,1.6,0.8,2.2
			c0.5,0.6,1.2,0.8,2.2,0.8c0.8,0,1.5-0.1,2-0.2c0.6-0.2,1.1-0.4,1.7-0.7l1,2.2c-0.5,0.4-1.2,0.8-2.1,1.1S315,147.8,314,147.8z
			 M313.7,136.9c-0.7,0-1.3,0.2-1.6,0.7c-0.4,0.5-0.6,1.1-0.7,1.9l0,0.1h4.3v-0.3c0-0.8-0.2-1.4-0.5-1.8
			C315,137.2,314.4,136.9,313.7,136.9z"/>
		<path class="st4" d="M324.5,134.5l0.2,1.9c0.4-0.7,1-1.2,1.6-1.6s1.3-0.6,2.1-0.6c1.3,0,2.4,0.4,3.1,1.3c0.7,0.8,1.1,2.2,1.1,4v8
			H329v-8c0-0.9-0.2-1.6-0.5-2c-0.3-0.4-0.8-0.6-1.5-0.6c-0.5,0-1,0.1-1.4,0.3c-0.4,0.2-0.7,0.5-1,0.8v9.5h-3.5v-13.1H324.5z"/>
		<path class="st4" d="M340.7,145.1c0.6,0,1.1-0.2,1.5-0.5c0.4-0.4,0.5-0.9,0.5-1.5h3.2l0,0.1c0,1.3-0.5,2.4-1.5,3.3
			c-1,0.9-2.3,1.3-3.8,1.3c-1.9,0-3.4-0.6-4.5-1.9c-1.1-1.2-1.6-2.8-1.6-4.7v-0.4c0-1.9,0.5-3.5,1.6-4.7c1.1-1.2,2.5-1.9,4.5-1.9
			c1.6,0,2.9,0.5,3.9,1.4c1,0.9,1.4,2.1,1.4,3.6l0,0.1h-3.2c0-0.7-0.2-1.2-0.5-1.7c-0.4-0.4-0.9-0.7-1.5-0.7c-0.9,0-1.6,0.4-1.9,1.1
			c-0.4,0.7-0.6,1.7-0.6,2.8v0.4c0,1.2,0.2,2.1,0.6,2.8C339.1,144.7,339.7,145.1,340.7,145.1z"/>
		<path class="st4" d="M353.6,147.8c-1.9,0-3.5-0.6-4.6-1.8c-1.1-1.2-1.6-2.7-1.6-4.6v-0.5c0-2,0.5-3.6,1.6-4.8
			c1.1-1.2,2.5-1.9,4.4-1.9c1.8,0,3.1,0.5,4,1.6c0.9,1.1,1.4,2.5,1.4,4.3v1.8h-7.8l0,0.1c0.1,0.9,0.3,1.6,0.8,2.2
			c0.5,0.6,1.2,0.8,2.2,0.8c0.8,0,1.5-0.1,2-0.2c0.6-0.2,1.1-0.4,1.7-0.7l1,2.2c-0.5,0.4-1.2,0.8-2.1,1.1S354.7,147.8,353.6,147.8z
			 M353.4,136.9c-0.7,0-1.3,0.2-1.6,0.7c-0.4,0.5-0.6,1.1-0.7,1.9l0,0.1h4.3v-0.3c0-0.8-0.2-1.4-0.5-1.8
			C354.6,137.2,354.1,136.9,353.4,136.9z"/>
	</g>
	<g class="st0">
		<path class="st1" d="M192.8,121.6c0.6,0,1.1-0.2,1.5-0.5c0.4-0.4,0.5-0.9,0.5-1.5h3.2l0,0.1c0,1.3-0.5,2.4-1.5,3.3
			c-1,0.9-2.3,1.3-3.8,1.3c-1.9,0-3.4-0.6-4.5-1.9c-1.1-1.2-1.6-2.8-1.6-4.7v-0.4c0-1.9,0.5-3.5,1.6-4.7c1.1-1.2,2.5-1.9,4.5-1.9
			c1.6,0,2.9,0.5,3.9,1.4s1.4,2.1,1.4,3.6l0,0.1h-3.2c0-0.7-0.2-1.2-0.5-1.7c-0.4-0.4-0.9-0.7-1.5-0.7c-0.9,0-1.6,0.4-1.9,1.1
			c-0.4,0.7-0.6,1.7-0.6,2.8v0.4c0,1.2,0.2,2.1,0.6,2.8C191.2,121.2,191.9,121.6,192.8,121.6z"/>
		<path class="st1" d="M199.6,117.4c0-1.9,0.5-3.5,1.6-4.8c1.1-1.2,2.6-1.9,4.5-1.9c1.9,0,3.4,0.6,4.5,1.9c1.1,1.2,1.6,2.8,1.6,4.8
			v0.3c0,2-0.5,3.6-1.6,4.8c-1.1,1.2-2.6,1.9-4.5,1.9c-1.9,0-3.4-0.6-4.5-1.9c-1.1-1.2-1.6-2.8-1.6-4.8V117.4z M203.1,117.7
			c0,1.2,0.2,2.1,0.6,2.9c0.4,0.7,1.1,1.1,2,1.1c0.9,0,1.6-0.4,2-1.1c0.4-0.7,0.6-1.7,0.6-2.9v-0.3c0-1.2-0.2-2.1-0.6-2.8
			c-0.4-0.7-1.1-1.1-2-1.1c-0.9,0-1.6,0.4-2,1.1c-0.4,0.7-0.6,1.7-0.6,2.8V117.7z"/>
		<path class="st1" d="M217.3,111l0.2,1.9c0.4-0.7,1-1.2,1.6-1.6c0.6-0.4,1.3-0.6,2.1-0.6c1.3,0,2.4,0.4,3.1,1.3
			c0.7,0.8,1.1,2.2,1.1,4v8h-3.5v-8c0-0.9-0.2-1.6-0.5-2c-0.3-0.4-0.8-0.6-1.5-0.6c-0.5,0-1,0.1-1.4,0.3c-0.4,0.2-0.7,0.5-1,0.8v9.5
			H214V111H217.3z"/>
		<path class="st1" d="M231.3,111l0.2,1.9c0.4-0.7,1-1.2,1.6-1.6s1.3-0.6,2.1-0.6c1.3,0,2.4,0.4,3.1,1.3c0.7,0.8,1.1,2.2,1.1,4v8
			h-3.5v-8c0-0.9-0.2-1.6-0.5-2c-0.3-0.4-0.8-0.6-1.5-0.6c-0.5,0-1,0.1-1.4,0.3c-0.4,0.2-0.7,0.5-1,0.8v9.5H228V111H231.3z"/>
		<path class="st1" d="M247.7,124.3c-1.9,0-3.5-0.6-4.6-1.8c-1.1-1.2-1.6-2.7-1.6-4.6v-0.5c0-2,0.5-3.6,1.6-4.8
			c1.1-1.2,2.5-1.9,4.4-1.9c1.8,0,3.1,0.5,4,1.6c0.9,1.1,1.4,2.5,1.4,4.3v1.8h-7.8l0,0.1c0.1,0.9,0.3,1.6,0.8,2.2
			c0.5,0.6,1.2,0.8,2.2,0.8c0.8,0,1.5-0.1,2-0.2c0.6-0.2,1.1-0.4,1.7-0.7l1,2.2c-0.5,0.4-1.2,0.8-2.1,1.1S248.7,124.3,247.7,124.3z
			 M247.4,113.5c-0.7,0-1.3,0.2-1.6,0.7c-0.4,0.5-0.6,1.1-0.7,1.9l0,0.1h4.3v-0.3c0-0.8-0.2-1.4-0.5-1.8
			C248.7,113.7,248.1,113.5,247.4,113.5z"/>
		<path class="st1" d="M260.4,121.6c0.6,0,1.1-0.2,1.5-0.5c0.4-0.4,0.5-0.9,0.5-1.5h3.2l0,0.1c0,1.3-0.5,2.4-1.5,3.3
			c-1,0.9-2.3,1.3-3.8,1.3c-1.9,0-3.4-0.6-4.5-1.9c-1.1-1.2-1.6-2.8-1.6-4.7v-0.4c0-1.9,0.5-3.5,1.6-4.7c1.1-1.2,2.5-1.9,4.5-1.9
			c1.6,0,2.9,0.5,3.9,1.4c1,0.9,1.4,2.1,1.4,3.6l0,0.1h-3.2c0-0.7-0.2-1.2-0.5-1.7c-0.4-0.4-0.9-0.7-1.5-0.7c-0.9,0-1.6,0.4-1.9,1.1
			c-0.4,0.7-0.6,1.7-0.6,2.8v0.4c0,1.2,0.2,2.1,0.6,2.8C258.8,121.2,259.5,121.6,260.4,121.6z"/>
		<path class="st1" d="M271.9,107.8v3.2h2.2v2.5h-2.2v6.7c0,0.5,0.1,0.9,0.3,1.1c0.2,0.2,0.5,0.3,0.8,0.3c0.2,0,0.3,0,0.5,0
			c0.1,0,0.3-0.1,0.5-0.1l0.3,2.5c-0.4,0.1-0.7,0.2-1,0.3c-0.3,0.1-0.7,0.1-1.1,0.1c-1.2,0-2.2-0.3-2.8-1c-0.7-0.7-1-1.7-1-3.2v-6.7
			h-1.9V111h1.9v-3.2H271.9z"/>
		<path class="st1" d="M280,107.9h-3.5v-2.6h3.5V107.9z M280,124.1h-3.5V111h3.5V124.1z"/>
		<path class="st1" d="M282.4,117.4c0-1.9,0.5-3.5,1.6-4.8c1.1-1.2,2.6-1.9,4.5-1.9c1.9,0,3.4,0.6,4.5,1.9c1.1,1.2,1.6,2.8,1.6,4.8
			v0.3c0,2-0.5,3.6-1.6,4.8c-1.1,1.2-2.6,1.9-4.5,1.9c-1.9,0-3.4-0.6-4.5-1.9c-1.1-1.2-1.6-2.8-1.6-4.8V117.4z M285.9,117.7
			c0,1.2,0.2,2.1,0.6,2.9c0.4,0.7,1.1,1.1,2,1.1c0.9,0,1.6-0.4,2-1.1c0.4-0.7,0.6-1.7,0.6-2.9v-0.3c0-1.2-0.2-2.1-0.6-2.8
			c-0.4-0.7-1.1-1.1-2-1.1c-0.9,0-1.6,0.4-2,1.1c-0.4,0.7-0.6,1.7-0.6,2.8V117.7z"/>
		<path class="st1" d="M300.1,111l0.2,1.9c0.4-0.7,1-1.2,1.6-1.6c0.6-0.4,1.3-0.6,2.1-0.6c1.3,0,2.4,0.4,3.1,1.3
			c0.7,0.8,1.1,2.2,1.1,4v8h-3.5v-8c0-0.9-0.2-1.6-0.5-2c-0.3-0.4-0.8-0.6-1.5-0.6c-0.5,0-1,0.1-1.4,0.3c-0.4,0.2-0.7,0.5-1,0.8v9.5
			h-3.5V111H300.1z"/>
	</g>
	<g class="st0">
		<path class="st5" d="M367.9,158.1v-10.6H366V145h1.9v-1.4c0-1.5,0.4-2.6,1.3-3.4c0.8-0.8,2-1.2,3.6-1.2c0.3,0,0.6,0,0.9,0.1
			c0.3,0,0.6,0.1,1,0.2l-0.3,2.6c-0.2,0-0.4-0.1-0.6-0.1c-0.2,0-0.4,0-0.6,0c-0.6,0-1,0.2-1.3,0.5c-0.3,0.3-0.4,0.8-0.4,1.4v1.4h2.5
			v2.5h-2.5v10.6H367.9z"/>
		<path class="st5" d="M383.6,156.2c-0.4,0.7-0.9,1.2-1.5,1.6s-1.3,0.6-2.2,0.6c-1.4,0-2.5-0.5-3.2-1.4c-0.8-0.9-1.2-2.4-1.2-4.3
			V145h3.5v7.6c0,1.1,0.2,1.9,0.5,2.3c0.3,0.4,0.8,0.6,1.4,0.6c0.6,0,1-0.1,1.4-0.3c0.4-0.2,0.7-0.4,1-0.8V145h3.5v13.1H384
			L383.6,156.2z"/>
		<path class="st5" d="M392.8,145l0.2,1.9c0.4-0.7,1-1.2,1.6-1.6c0.6-0.4,1.3-0.6,2.1-0.6c1.3,0,2.4,0.4,3.1,1.3
			c0.7,0.8,1.1,2.2,1.1,4v8h-3.5v-8c0-0.9-0.2-1.6-0.5-2c-0.3-0.4-0.8-0.6-1.5-0.6c-0.5,0-1,0.1-1.4,0.3c-0.4,0.2-0.7,0.5-1,0.8v9.5
			h-3.5V145H392.8z"/>
	</g>
	<g class="st0">
		<path class="st5" d="M100.2,92.7c0-1.7,0.4-3,1.1-4.1c0.7-1,1.8-1.6,3.1-1.6c0.6,0,1.1,0.1,1.6,0.4c0.5,0.3,0.8,0.7,1.2,1.2
			l0.2-1.4h2.5v10.6c0,1.4-0.5,2.5-1.4,3.2c-0.9,0.8-2.2,1.1-3.8,1.1c-0.5,0-1.1-0.1-1.7-0.2c-0.6-0.1-1.2-0.4-1.7-0.6l0.5-2.2
			c0.4,0.2,0.9,0.4,1.4,0.5c0.5,0.1,1,0.2,1.5,0.2c0.8,0,1.4-0.2,1.7-0.5c0.4-0.3,0.6-0.8,0.6-1.5v-1c-0.3,0.4-0.7,0.7-1.1,0.9
			c-0.4,0.2-0.9,0.3-1.5,0.3c-1.3,0-2.3-0.5-3.1-1.4c-0.7-1-1.1-2.2-1.1-3.8V92.7z M103.1,92.9c0,0.9,0.2,1.7,0.5,2.2
			c0.3,0.5,0.8,0.8,1.5,0.8c0.4,0,0.8-0.1,1.1-0.2c0.3-0.2,0.6-0.4,0.7-0.7v-4.6c-0.2-0.3-0.4-0.6-0.7-0.8c-0.3-0.2-0.7-0.3-1.1-0.3
			c-0.7,0-1.2,0.3-1.5,0.9c-0.3,0.6-0.5,1.4-0.5,2.5V92.9z"/>
		<path class="st5" d="M118.4,97.9c-0.1-0.2-0.2-0.5-0.3-0.8c-0.1-0.3-0.1-0.5-0.2-0.8c-0.3,0.5-0.7,1-1.2,1.3
			c-0.5,0.3-1.1,0.5-1.7,0.5c-1.1,0-2-0.3-2.6-0.9c-0.6-0.6-0.9-1.4-0.9-2.4c0-1,0.4-1.9,1.2-2.4c0.8-0.6,2-0.9,3.5-0.9h1.6v-0.9
			c0-0.5-0.1-0.9-0.4-1.2c-0.3-0.3-0.7-0.4-1.2-0.4c-0.5,0-0.8,0.1-1.1,0.3c-0.3,0.2-0.4,0.5-0.4,0.9h-2.8l0-0.1
			c0-0.9,0.3-1.7,1.2-2.3c0.8-0.7,1.9-1,3.3-1c1.3,0,2.3,0.3,3.1,1c0.8,0.6,1.2,1.6,1.2,2.8v4.4c0,0.5,0,1,0.1,1.4
			c0.1,0.4,0.2,0.9,0.4,1.3H118.4z M115.8,96c0.5,0,0.9-0.1,1.3-0.4c0.4-0.2,0.7-0.5,0.8-0.9v-1.5h-1.6c-0.6,0-1.1,0.2-1.4,0.5
			c-0.3,0.3-0.5,0.7-0.5,1.1c0,0.4,0.1,0.7,0.4,0.9C115,95.9,115.3,96,115.8,96z"/>
		<path class="st5" d="M122.5,92.7c0-1.7,0.4-3,1.1-4.1c0.7-1,1.8-1.6,3.1-1.6c0.5,0,1,0.1,1.4,0.3c0.4,0.2,0.8,0.6,1.1,1v-5.9h2.9
			v15.4h-2.5l-0.2-1.3c-0.3,0.5-0.7,0.9-1.2,1.1c-0.5,0.3-1,0.4-1.6,0.4c-1.3,0-2.3-0.5-3.1-1.4c-0.7-1-1.1-2.2-1.1-3.8V92.7z
			 M125.4,92.9c0,0.9,0.2,1.7,0.5,2.2c0.3,0.5,0.8,0.8,1.5,0.8c0.4,0,0.8-0.1,1.1-0.3c0.3-0.2,0.6-0.4,0.8-0.7v-4.6
			c-0.2-0.3-0.4-0.6-0.8-0.8c-0.3-0.2-0.7-0.3-1.1-0.3c-0.7,0-1.2,0.3-1.5,0.9c-0.3,0.6-0.5,1.4-0.5,2.5V92.9z"/>
		<path class="st5" d="M134,92.7c0-1.7,0.4-3,1.1-4.1c0.7-1,1.8-1.6,3.1-1.6c0.6,0,1.1,0.1,1.6,0.4c0.5,0.3,0.8,0.7,1.2,1.2l0.2-1.4
			h2.5v10.6c0,1.4-0.5,2.5-1.4,3.2c-0.9,0.8-2.2,1.1-3.8,1.1c-0.5,0-1.1-0.1-1.7-0.2c-0.6-0.1-1.2-0.4-1.7-0.6l0.5-2.2
			c0.4,0.2,0.9,0.4,1.4,0.5c0.5,0.1,1,0.2,1.5,0.2c0.8,0,1.4-0.2,1.7-0.5c0.4-0.3,0.6-0.8,0.6-1.5v-1c-0.3,0.4-0.7,0.7-1.1,0.9
			c-0.4,0.2-0.9,0.3-1.5,0.3c-1.3,0-2.3-0.5-3.1-1.4c-0.7-1-1.1-2.2-1.1-3.8V92.7z M136.8,92.9c0,0.9,0.2,1.7,0.5,2.2
			c0.3,0.5,0.8,0.8,1.5,0.8c0.4,0,0.8-0.1,1.1-0.2c0.3-0.2,0.6-0.4,0.7-0.7v-4.6c-0.2-0.3-0.4-0.6-0.7-0.8c-0.3-0.2-0.7-0.3-1.1-0.3
			c-0.7,0-1.2,0.3-1.5,0.9c-0.3,0.6-0.5,1.4-0.5,2.5V92.9z"/>
		<path class="st5" d="M150.4,98.2c-1.6,0-2.8-0.5-3.7-1.5c-0.9-1-1.3-2.2-1.3-3.8v-0.4c0-1.6,0.4-2.9,1.3-3.9s2.1-1.5,3.6-1.5
			c1.4,0,2.5,0.4,3.3,1.3c0.8,0.9,1.2,2.1,1.2,3.6v1.5h-6.4l0,0.1c0,0.7,0.3,1.3,0.7,1.8c0.4,0.5,1,0.7,1.8,0.7
			c0.6,0,1.2-0.1,1.6-0.2c0.5-0.1,0.9-0.3,1.4-0.6l0.8,1.8c-0.4,0.3-1,0.6-1.7,0.9S151.3,98.2,150.4,98.2z M150.3,89.3
			c-0.6,0-1,0.2-1.3,0.6c-0.3,0.4-0.5,0.9-0.6,1.6l0,0h3.5v-0.2c0-0.6-0.1-1.1-0.4-1.5C151.2,89.5,150.8,89.3,150.3,89.3z"/>
		<path class="st5" d="M159.9,84.6v2.6h1.8v2h-1.8v5.4c0,0.4,0.1,0.7,0.3,0.9c0.2,0.2,0.4,0.3,0.7,0.3c0.2,0,0.3,0,0.4,0
			c0.1,0,0.2,0,0.4-0.1l0.2,2.1c-0.3,0.1-0.6,0.2-0.8,0.2c-0.3,0-0.6,0.1-0.9,0.1c-1,0-1.8-0.3-2.3-0.8c-0.5-0.5-0.8-1.4-0.8-2.6
			v-5.5h-1.6v-2h1.6v-2.6H159.9z"/>
		<path class="st5" d="M169.2,95c0-0.3-0.2-0.6-0.5-0.8c-0.3-0.2-0.9-0.4-1.7-0.6c-1.3-0.3-2.2-0.6-2.9-1.1s-1-1.2-1-2.1
			c0-0.9,0.4-1.7,1.2-2.3c0.8-0.6,1.8-1,3.1-1c1.4,0,2.4,0.3,3.2,1s1.2,1.4,1.2,2.4l0,0.1h-2.8c0-0.4-0.1-0.8-0.4-1
			c-0.3-0.3-0.7-0.4-1.2-0.4c-0.5,0-0.8,0.1-1.1,0.3c-0.3,0.2-0.4,0.5-0.4,0.8c0,0.3,0.1,0.6,0.4,0.8c0.3,0.2,0.8,0.4,1.7,0.6
			c1.3,0.3,2.3,0.7,2.9,1.2c0.6,0.5,1,1.2,1,2.1c0,1-0.4,1.7-1.2,2.4c-0.8,0.6-1.9,0.9-3.3,0.9c-1.4,0-2.5-0.4-3.4-1.1
			c-0.8-0.7-1.2-1.5-1.2-2.5l0-0.1h2.6c0,0.6,0.2,1,0.6,1.2c0.4,0.3,0.8,0.4,1.4,0.4c0.5,0,0.9-0.1,1.2-0.3
			C169.1,95.6,169.2,95.4,169.2,95z"/>
	</g>
	<g class="st0">
		<path class="st5" d="M198.4,140.8c0-1.7,0.4-3,1.1-4.1c0.7-1,1.8-1.6,3.1-1.6c0.6,0,1.1,0.1,1.6,0.4c0.5,0.3,0.8,0.7,1.2,1.2
			l0.2-1.4h2.5V146c0,1.4-0.5,2.5-1.4,3.2c-0.9,0.8-2.2,1.1-3.8,1.1c-0.5,0-1.1-0.1-1.7-0.2c-0.6-0.1-1.2-0.4-1.7-0.6l0.5-2.2
			c0.4,0.2,0.9,0.4,1.4,0.5c0.5,0.1,1,0.2,1.5,0.2c0.8,0,1.4-0.2,1.7-0.5c0.4-0.3,0.6-0.8,0.6-1.5v-1c-0.3,0.4-0.7,0.7-1.1,0.9
			c-0.4,0.2-0.9,0.3-1.5,0.3c-1.3,0-2.3-0.5-3.1-1.4c-0.7-1-1.1-2.2-1.1-3.8V140.8z M201.2,141c0,0.9,0.2,1.7,0.5,2.2
			c0.3,0.5,0.8,0.8,1.5,0.8c0.4,0,0.8-0.1,1.1-0.2c0.3-0.2,0.6-0.4,0.7-0.7v-4.6c-0.2-0.3-0.4-0.6-0.7-0.8c-0.3-0.2-0.7-0.3-1.1-0.3
			c-0.7,0-1.2,0.3-1.5,0.9s-0.5,1.4-0.5,2.5V141z"/>
		<path class="st5" d="M216.5,146c-0.1-0.2-0.2-0.5-0.3-0.8c-0.1-0.3-0.1-0.5-0.2-0.8c-0.3,0.5-0.7,1-1.2,1.3
			c-0.5,0.3-1.1,0.5-1.7,0.5c-1.1,0-2-0.3-2.6-0.9c-0.6-0.6-0.9-1.4-0.9-2.4c0-1,0.4-1.9,1.2-2.4c0.8-0.6,2-0.9,3.5-0.9h1.6v-0.9
			c0-0.5-0.1-0.9-0.4-1.2c-0.3-0.3-0.7-0.4-1.2-0.4c-0.5,0-0.8,0.1-1.1,0.3c-0.3,0.2-0.4,0.5-0.4,0.9h-2.8l0-0.1
			c0-0.9,0.3-1.7,1.2-2.3c0.8-0.7,1.9-1,3.3-1c1.3,0,2.3,0.3,3.1,1c0.8,0.6,1.2,1.6,1.2,2.8v4.4c0,0.5,0,1,0.1,1.4
			c0.1,0.4,0.2,0.9,0.4,1.3H216.5z M213.9,144.1c0.5,0,0.9-0.1,1.3-0.4c0.4-0.2,0.7-0.5,0.8-0.9v-1.5h-1.6c-0.6,0-1.1,0.2-1.4,0.5
			c-0.3,0.3-0.5,0.7-0.5,1.1c0,0.4,0.1,0.7,0.4,0.9C213.1,144,213.5,144.1,213.9,144.1z"/>
		<path class="st5" d="M223.8,135.3l0.1,1.4c0.3-0.5,0.8-0.9,1.3-1.2c0.5-0.3,1.1-0.4,1.8-0.4c0.7,0,1.3,0.2,1.8,0.5
			c0.5,0.3,0.9,0.8,1.1,1.4c0.3-0.6,0.8-1,1.3-1.3c0.5-0.3,1.1-0.5,1.9-0.5c1.1,0,1.9,0.4,2.5,1.1c0.6,0.7,0.9,1.9,0.9,3.4v6.3h-2.9
			v-6.4c0-0.9-0.1-1.5-0.4-1.8s-0.7-0.5-1.2-0.5c-0.4,0-0.8,0.1-1.1,0.3c-0.3,0.2-0.5,0.4-0.7,0.8c0,0.1,0,0.2,0,0.3
			c0,0.1,0,0.2,0,0.3v7h-2.9v-6.4c0-0.8-0.1-1.4-0.4-1.8c-0.3-0.3-0.7-0.5-1.2-0.5c-0.4,0-0.7,0.1-1,0.2c-0.3,0.1-0.5,0.4-0.7,0.6
			v7.8h-2.9v-10.7H223.8z"/>
		<path class="st5" d="M241.6,132.8h-2.9v-2.2h2.9V132.8z M241.6,146h-2.9v-10.7h2.9V146z"/>
		<path class="st5" d="M246.6,135.3l0.1,1.5c0.4-0.5,0.8-1,1.3-1.3c0.5-0.3,1.1-0.5,1.7-0.5c1.1,0,1.9,0.3,2.5,1
			c0.6,0.7,0.9,1.8,0.9,3.3v6.6h-2.9v-6.5c0-0.8-0.1-1.3-0.4-1.6c-0.3-0.3-0.7-0.5-1.2-0.5c-0.4,0-0.8,0.1-1.1,0.2
			c-0.3,0.2-0.6,0.4-0.8,0.7v7.7h-2.9v-10.7H246.6z"/>
		<path class="st5" d="M255,140.8c0-1.7,0.4-3,1.1-4.1c0.7-1,1.8-1.6,3.1-1.6c0.6,0,1.1,0.1,1.6,0.4c0.5,0.3,0.8,0.7,1.2,1.2
			l0.2-1.4h2.5V146c0,1.4-0.5,2.5-1.4,3.2c-0.9,0.8-2.2,1.1-3.8,1.1c-0.5,0-1.1-0.1-1.7-0.2c-0.6-0.1-1.2-0.4-1.7-0.6l0.5-2.2
			c0.4,0.2,0.9,0.4,1.4,0.5c0.5,0.1,1,0.2,1.5,0.2c0.8,0,1.4-0.2,1.7-0.5c0.4-0.3,0.6-0.8,0.6-1.5v-1c-0.3,0.4-0.7,0.7-1.1,0.9
			c-0.4,0.2-0.9,0.3-1.5,0.3c-1.3,0-2.3-0.5-3.1-1.4c-0.7-1-1.1-2.2-1.1-3.8V140.8z M257.9,141c0,0.9,0.2,1.7,0.5,2.2
			c0.3,0.5,0.8,0.8,1.5,0.8c0.4,0,0.8-0.1,1.1-0.2c0.3-0.2,0.6-0.4,0.7-0.7v-4.6c-0.2-0.3-0.4-0.6-0.7-0.8c-0.3-0.2-0.7-0.3-1.1-0.3
			c-0.7,0-1.2,0.3-1.5,0.9s-0.5,1.4-0.5,2.5V141z"/>
	</g>
	<g class="st0">
		<path class="st5" d="M240.7,58.8h-2.1v-1.6h2.1V58.8z M240.7,68.7h-2.1v-7.9h2.1V68.7z"/>
		<path class="st5" d="M244.4,60.7l0.1,1.1c0.3-0.4,0.6-0.7,1-0.9c0.4-0.2,0.8-0.3,1.3-0.3c0.8,0,1.4,0.3,1.9,0.8
			c0.4,0.5,0.7,1.3,0.7,2.4v4.9h-2.1v-4.8c0-0.6-0.1-1-0.3-1.2c-0.2-0.2-0.5-0.4-0.9-0.4c-0.3,0-0.6,0.1-0.8,0.2
			c-0.2,0.1-0.4,0.3-0.6,0.5v5.7h-2.1v-7.9H244.4z"/>
		<path class="st5" d="M253.5,58.8v1.9h1.3v1.5h-1.3v4c0,0.3,0.1,0.5,0.2,0.7c0.1,0.1,0.3,0.2,0.5,0.2c0.1,0,0.2,0,0.3,0
			c0.1,0,0.2,0,0.3-0.1l0.2,1.5c-0.2,0.1-0.4,0.1-0.6,0.2c-0.2,0-0.4,0.1-0.7,0.1c-0.7,0-1.3-0.2-1.7-0.6c-0.4-0.4-0.6-1-0.6-1.9v-4
			h-1.2v-1.5h1.2v-1.9H253.5z"/>
		<path class="st5" d="M259.6,68.8c-1.2,0-2.1-0.4-2.8-1.1c-0.7-0.7-1-1.7-1-2.8v-0.3c0-1.2,0.3-2.2,1-2.9c0.6-0.8,1.5-1.1,2.7-1.1
			c1.1,0,1.9,0.3,2.4,1c0.6,0.7,0.9,1.5,0.9,2.6v1.1h-4.7l0,0c0,0.5,0.2,1,0.5,1.3c0.3,0.3,0.7,0.5,1.3,0.5c0.5,0,0.9,0,1.2-0.1
			c0.3-0.1,0.7-0.2,1-0.4l0.6,1.3c-0.3,0.3-0.7,0.5-1.3,0.7C260.8,68.7,260.2,68.8,259.6,68.8z M259.5,62.2c-0.4,0-0.8,0.1-1,0.4
			c-0.2,0.3-0.4,0.7-0.4,1.2l0,0h2.6v-0.2c0-0.5-0.1-0.8-0.3-1.1C260.2,62.4,259.9,62.2,259.5,62.2z"/>
		<path class="st5" d="M268.2,62.6l-0.8,0c-0.3,0-0.6,0.1-0.8,0.2c-0.2,0.1-0.4,0.3-0.5,0.6v5.4H264v-7.9h2l0.1,1.2
			c0.2-0.4,0.4-0.7,0.7-1c0.3-0.2,0.6-0.3,1-0.3c0.1,0,0.2,0,0.3,0c0.1,0,0.2,0,0.3,0.1L268.2,62.6z"/>
		<path class="st5" d="M271.2,60.7l0.1,1.1c0.3-0.4,0.6-0.7,1-0.9c0.4-0.2,0.8-0.3,1.3-0.3c0.8,0,1.4,0.3,1.9,0.8
			c0.4,0.5,0.7,1.3,0.7,2.4v4.9H274v-4.8c0-0.6-0.1-1-0.3-1.2s-0.5-0.4-0.9-0.4c-0.3,0-0.6,0.1-0.8,0.2c-0.2,0.1-0.4,0.3-0.6,0.5
			v5.7h-2.1v-7.9H271.2z"/>
		<path class="st5" d="M281.2,68.8c-1.2,0-2.1-0.4-2.8-1.1c-0.7-0.7-1-1.7-1-2.8v-0.3c0-1.2,0.3-2.2,1-2.9s1.5-1.1,2.7-1.1
			c1.1,0,1.9,0.3,2.4,1c0.6,0.7,0.9,1.5,0.9,2.6v1.1h-4.7l0,0c0,0.5,0.2,1,0.5,1.3c0.3,0.3,0.7,0.5,1.3,0.5c0.5,0,0.9,0,1.2-0.1
			c0.3-0.1,0.7-0.2,1-0.4l0.6,1.3c-0.3,0.3-0.7,0.5-1.3,0.7S281.8,68.8,281.2,68.8z M281,62.2c-0.4,0-0.8,0.1-1,0.4
			c-0.2,0.3-0.4,0.7-0.4,1.2l0,0h2.6v-0.2c0-0.5-0.1-0.8-0.3-1.1C281.8,62.4,281.5,62.2,281,62.2z"/>
		<path class="st5" d="M288.2,58.8v1.9h1.3v1.5h-1.3v4c0,0.3,0.1,0.5,0.2,0.7c0.1,0.1,0.3,0.2,0.5,0.2c0.1,0,0.2,0,0.3,0
			c0.1,0,0.2,0,0.3-0.1l0.2,1.5c-0.2,0.1-0.4,0.1-0.6,0.2c-0.2,0-0.4,0.1-0.7,0.1c-0.7,0-1.3-0.2-1.7-0.6c-0.4-0.4-0.6-1-0.6-1.9v-4
			h-1.2v-1.5h1.2v-1.9H288.2z"/>
	</g>
	<g class="st0">
		<path class="st5" d="M141.1,110.1l0.1,1c0.3-0.4,0.6-0.7,1-0.9c0.4-0.2,0.8-0.3,1.3-0.3c0.5,0,0.9,0.1,1.3,0.3
			c0.4,0.2,0.6,0.6,0.8,1c0.2-0.4,0.6-0.8,1-1c0.4-0.2,0.8-0.4,1.4-0.4c0.8,0,1.4,0.3,1.8,0.8c0.5,0.6,0.7,1.4,0.7,2.5v4.7h-2.1
			v-4.7c0-0.6-0.1-1.1-0.3-1.3c-0.2-0.2-0.5-0.4-0.9-0.4c-0.3,0-0.6,0.1-0.8,0.2c-0.2,0.1-0.4,0.3-0.5,0.6c0,0.1,0,0.2,0,0.2
			s0,0.1,0,0.2v5.2h-2.1v-4.7c0-0.6-0.1-1.1-0.3-1.3c-0.2-0.3-0.5-0.4-0.9-0.4c-0.3,0-0.5,0.1-0.8,0.2c-0.2,0.1-0.4,0.3-0.5,0.5v5.8
			h-2.1v-7.9H141.1z"/>
		<path class="st5" d="M157,116.8c-0.2,0.4-0.6,0.8-0.9,1c-0.4,0.2-0.8,0.3-1.3,0.3c-0.8,0-1.5-0.3-2-0.8c-0.5-0.6-0.7-1.4-0.7-2.6
			v-4.6h2.1v4.6c0,0.7,0.1,1.2,0.3,1.4c0.2,0.3,0.5,0.4,0.9,0.4c0.3,0,0.6-0.1,0.9-0.2c0.2-0.1,0.4-0.3,0.6-0.5v-5.8h2.1v7.9h-1.8
			L157,116.8z"/>
		<path class="st5" d="M164.8,115.8c0-0.2-0.1-0.4-0.3-0.6c-0.2-0.2-0.6-0.3-1.3-0.4c-0.9-0.2-1.6-0.5-2.1-0.8
			c-0.5-0.4-0.7-0.9-0.7-1.5c0-0.7,0.3-1.3,0.9-1.7c0.6-0.5,1.3-0.7,2.3-0.7c1,0,1.8,0.2,2.4,0.7c0.6,0.5,0.9,1.1,0.9,1.8l0,0h-2.1
			c0-0.3-0.1-0.6-0.3-0.8c-0.2-0.2-0.5-0.3-0.9-0.3c-0.3,0-0.6,0.1-0.8,0.3s-0.3,0.4-0.3,0.6c0,0.2,0.1,0.4,0.3,0.6
			c0.2,0.2,0.6,0.3,1.3,0.4c1,0.2,1.7,0.5,2.2,0.9s0.7,0.9,0.7,1.6c0,0.7-0.3,1.3-0.9,1.7c-0.6,0.5-1.4,0.7-2.4,0.7
			c-1.1,0-1.9-0.3-2.5-0.8c-0.6-0.5-0.9-1.1-0.9-1.8l0,0h2c0,0.4,0.2,0.7,0.4,0.9c0.3,0.2,0.6,0.3,1,0.3c0.4,0,0.7-0.1,0.9-0.2
			C164.7,116.3,164.8,116.1,164.8,115.8z"/>
		<path class="st5" d="M170.5,108.2h-2.1v-1.6h2.1V108.2z M170.5,118h-2.1v-7.9h2.1V118z"/>
		<path class="st5" d="M175.6,116.5c0.4,0,0.7-0.1,0.9-0.3c0.2-0.2,0.3-0.5,0.3-0.9h1.9l0,0c0,0.8-0.3,1.5-0.9,2
			c-0.6,0.5-1.4,0.8-2.3,0.8c-1.2,0-2.1-0.4-2.7-1.1c-0.6-0.7-1-1.7-1-2.9v-0.2c0-1.2,0.3-2.1,1-2.9c0.6-0.8,1.5-1.1,2.7-1.1
			c1,0,1.7,0.3,2.3,0.8c0.6,0.6,0.9,1.3,0.9,2.2l0,0h-1.9c0-0.4-0.1-0.8-0.3-1c-0.2-0.3-0.5-0.4-0.9-0.4c-0.6,0-0.9,0.2-1.2,0.7
			c-0.2,0.4-0.3,1-0.3,1.7v0.2c0,0.7,0.1,1.3,0.3,1.7C174.6,116.3,175,116.5,175.6,116.5z"/>
	</g>
	<g class="st0">
		<path class="st3" d="M325.8,115.4c0-1.2,0.3-2.3,0.8-3c0.5-0.8,1.3-1.1,2.3-1.1c0.4,0,0.8,0.1,1.1,0.3c0.3,0.2,0.6,0.4,0.8,0.7
			v-4.3h2.1v11.4h-1.8l-0.2-1c-0.2,0.4-0.5,0.6-0.9,0.8c-0.3,0.2-0.7,0.3-1.2,0.3c-1,0-1.7-0.4-2.3-1.1c-0.5-0.7-0.8-1.7-0.8-2.8
			V115.4z M327.9,115.6c0,0.7,0.1,1.2,0.4,1.6c0.2,0.4,0.6,0.6,1.1,0.6c0.3,0,0.6-0.1,0.8-0.2c0.2-0.1,0.4-0.3,0.6-0.5v-3.4
			c-0.1-0.2-0.3-0.4-0.6-0.6c-0.2-0.1-0.5-0.2-0.8-0.2c-0.5,0-0.9,0.2-1.1,0.7c-0.2,0.5-0.4,1.1-0.4,1.8V115.6z"/>
		<path class="st3" d="M336.8,109.5h-2.1v-1.6h2.1V109.5z M336.8,119.3h-2.1v-7.9h2.1V119.3z"/>
		<path class="st3" d="M338.3,115.4c0-1.2,0.3-2.3,0.8-3c0.5-0.8,1.3-1.1,2.3-1.1c0.4,0,0.8,0.1,1.2,0.3c0.3,0.2,0.6,0.5,0.9,0.9
			l0.2-1h1.8v7.9c0,1-0.3,1.8-1,2.4s-1.6,0.8-2.8,0.8c-0.4,0-0.8-0.1-1.3-0.2c-0.4-0.1-0.9-0.3-1.2-0.5l0.4-1.6
			c0.3,0.2,0.7,0.3,1,0.4c0.3,0.1,0.7,0.1,1.1,0.1c0.6,0,1-0.1,1.3-0.4c0.3-0.2,0.4-0.6,0.4-1.1v-0.7c-0.2,0.3-0.5,0.5-0.8,0.7
			c-0.3,0.2-0.7,0.2-1.1,0.2c-1,0-1.7-0.4-2.3-1.1s-0.8-1.7-0.8-2.8V115.4z M340.4,115.6c0,0.7,0.1,1.2,0.3,1.6
			c0.2,0.4,0.6,0.6,1.1,0.6c0.3,0,0.6-0.1,0.8-0.2c0.2-0.1,0.4-0.3,0.5-0.5v-3.4c-0.1-0.2-0.3-0.4-0.5-0.6c-0.2-0.1-0.5-0.2-0.8-0.2
			c-0.5,0-0.9,0.2-1.1,0.7c-0.2,0.5-0.4,1.1-0.4,1.8V115.6z"/>
		<path class="st3" d="M349.3,109.5h-2.1v-1.6h2.1V109.5z M349.3,119.3h-2.1v-7.9h2.1V119.3z"/>
		<path class="st3" d="M353.6,109.5v1.9h1.3v1.5h-1.3v4c0,0.3,0.1,0.5,0.2,0.7c0.1,0.1,0.3,0.2,0.5,0.2c0.1,0,0.2,0,0.3,0
			c0.1,0,0.2,0,0.3-0.1l0.2,1.5c-0.2,0.1-0.4,0.1-0.6,0.2c-0.2,0-0.4,0.1-0.7,0.1c-0.7,0-1.3-0.2-1.7-0.6c-0.4-0.4-0.6-1-0.6-1.9v-4
			h-1.2v-1.5h1.2v-1.9H353.6z"/>
		<path class="st3" d="M360.9,119.3c-0.1-0.2-0.1-0.4-0.2-0.6c-0.1-0.2-0.1-0.4-0.1-0.6c-0.2,0.4-0.5,0.7-0.9,1
			c-0.4,0.3-0.8,0.4-1.3,0.4c-0.8,0-1.5-0.2-1.9-0.6c-0.4-0.4-0.7-1-0.7-1.7c0-0.8,0.3-1.4,0.9-1.8c0.6-0.4,1.5-0.6,2.6-0.6h1.2V114
			c0-0.4-0.1-0.7-0.3-0.9c-0.2-0.2-0.5-0.3-0.9-0.3c-0.3,0-0.6,0.1-0.8,0.3c-0.2,0.2-0.3,0.4-0.3,0.7h-2.1l0,0
			c0-0.7,0.3-1.2,0.9-1.7c0.6-0.5,1.4-0.7,2.4-0.7c1,0,1.7,0.2,2.3,0.7c0.6,0.5,0.9,1.2,0.9,2.1v3.3c0,0.4,0,0.7,0.1,1
			c0.1,0.3,0.1,0.7,0.3,1H360.9z M359,117.9c0.4,0,0.7-0.1,1-0.3c0.3-0.2,0.5-0.4,0.6-0.6v-1.1h-1.2c-0.5,0-0.8,0.1-1,0.3
			c-0.2,0.2-0.3,0.5-0.3,0.8c0,0.3,0.1,0.5,0.3,0.6C358.4,117.8,358.7,117.9,359,117.9z"/>
		<path class="st3" d="M366.6,119.3h-2.1v-11.4h2.1V119.3z"/>
	</g>
	<g class="st0">
		<path class="st4" d="M384.3,139.2c0-0.1-0.1-0.3-0.2-0.4c-0.1-0.1-0.4-0.2-0.8-0.3c-0.6-0.1-1-0.3-1.3-0.5
			c-0.3-0.2-0.4-0.5-0.4-0.9c0-0.4,0.2-0.8,0.5-1c0.3-0.3,0.8-0.4,1.4-0.4c0.6,0,1.1,0.1,1.4,0.4c0.4,0.3,0.5,0.6,0.5,1.1l0,0h-1.2
			c0-0.2-0.1-0.3-0.2-0.5s-0.3-0.2-0.5-0.2c-0.2,0-0.4,0.1-0.5,0.2c-0.1,0.1-0.2,0.2-0.2,0.4c0,0.1,0.1,0.3,0.2,0.4
			c0.1,0.1,0.4,0.2,0.8,0.2c0.6,0.1,1,0.3,1.3,0.5c0.3,0.2,0.4,0.5,0.4,0.9c0,0.4-0.2,0.8-0.5,1s-0.8,0.4-1.4,0.4
			c-0.6,0-1.1-0.2-1.5-0.5s-0.5-0.7-0.5-1.1l0,0h1.2c0,0.3,0.1,0.4,0.3,0.6c0.2,0.1,0.4,0.2,0.6,0.2c0.2,0,0.4,0,0.5-0.1
			C384.2,139.5,384.3,139.4,384.3,139.2z"/>
		<path class="st4" d="M390.7,138.3c0,0.7-0.2,1.3-0.5,1.7c-0.3,0.4-0.8,0.6-1.4,0.6c-0.2,0-0.5,0-0.7-0.1c-0.2-0.1-0.4-0.2-0.5-0.4
			v2.3h-1.3v-6.6h1.2l0.1,0.6c0.1-0.2,0.3-0.4,0.5-0.5s0.4-0.2,0.7-0.2c0.6,0,1,0.2,1.4,0.7C390.5,136.8,390.7,137.4,390.7,138.3
			L390.7,138.3z M389.4,138.2c0-0.4-0.1-0.8-0.2-1.1c-0.1-0.3-0.4-0.4-0.7-0.4c-0.2,0-0.4,0-0.5,0.1c-0.1,0.1-0.2,0.2-0.3,0.3v2.1
			c0.1,0.1,0.2,0.2,0.3,0.3c0.1,0.1,0.3,0.1,0.5,0.1c0.3,0,0.5-0.1,0.7-0.4S389.4,138.7,389.4,138.2L389.4,138.2z"/>
		<path class="st4" d="M391.3,138.1c0-0.7,0.2-1.3,0.6-1.7c0.4-0.5,0.9-0.7,1.6-0.7c0.7,0,1.3,0.2,1.7,0.7c0.4,0.5,0.6,1,0.6,1.7
			v0.1c0,0.7-0.2,1.3-0.6,1.7c-0.4,0.4-0.9,0.7-1.6,0.7c-0.7,0-1.3-0.2-1.6-0.7C391.5,139.5,391.3,138.9,391.3,138.1L391.3,138.1z
			 M392.5,138.2c0,0.4,0.1,0.8,0.2,1s0.4,0.4,0.7,0.4c0.3,0,0.6-0.1,0.7-0.4s0.2-0.6,0.2-1v-0.1c0-0.4-0.1-0.8-0.2-1
			c-0.2-0.3-0.4-0.4-0.7-0.4c-0.3,0-0.6,0.1-0.7,0.4C392.6,137.3,392.5,137.7,392.5,138.2L392.5,138.2z"/>
		<path class="st4" d="M399,136.9l-0.5,0c-0.2,0-0.3,0-0.5,0.1c-0.1,0.1-0.2,0.2-0.3,0.3v3.2h-1.3v-4.8h1.2l0.1,0.7
			c0.1-0.2,0.3-0.4,0.4-0.6c0.2-0.1,0.4-0.2,0.6-0.2c0.1,0,0.1,0,0.2,0s0.1,0,0.2,0L399,136.9z"/>
		<path class="st4" d="M401.3,134.6v1.2h0.8v0.9h-0.8v2.4c0,0.2,0,0.3,0.1,0.4c0.1,0.1,0.2,0.1,0.3,0.1c0.1,0,0.1,0,0.2,0
			c0,0,0.1,0,0.2,0l0.1,0.9c-0.1,0-0.3,0.1-0.4,0.1c-0.1,0-0.3,0-0.4,0c-0.4,0-0.8-0.1-1-0.4c-0.2-0.2-0.4-0.6-0.4-1.2v-2.4h-0.7
			v-0.9h0.7v-1.2H401.3z"/>
		<path class="st4" d="M405.5,139.2c0-0.1-0.1-0.3-0.2-0.4c-0.1-0.1-0.4-0.2-0.8-0.3c-0.6-0.1-1-0.3-1.3-0.5
			c-0.3-0.2-0.4-0.5-0.4-0.9c0-0.4,0.2-0.8,0.5-1c0.3-0.3,0.8-0.4,1.4-0.4c0.6,0,1.1,0.1,1.4,0.4s0.5,0.6,0.5,1.1l0,0h-1.2
			c0-0.2-0.1-0.3-0.2-0.5c-0.1-0.1-0.3-0.2-0.5-0.2c-0.2,0-0.4,0.1-0.5,0.2c-0.1,0.1-0.2,0.2-0.2,0.4c0,0.1,0.1,0.3,0.2,0.4
			c0.1,0.1,0.4,0.2,0.8,0.2c0.6,0.1,1,0.3,1.3,0.5c0.3,0.2,0.4,0.5,0.4,0.9c0,0.4-0.2,0.8-0.5,1s-0.8,0.4-1.4,0.4
			c-0.6,0-1.1-0.2-1.5-0.5s-0.5-0.7-0.5-1.1l0,0h1.2c0,0.3,0.1,0.4,0.3,0.6c0.2,0.1,0.4,0.2,0.6,0.2c0.2,0,0.4,0,0.5-0.1
			C405.4,139.5,405.5,139.4,405.5,139.2z"/>
	</g>
	<g class="st0">
		<path class="st3" d="M133.9,129c0,0.7-0.2,1.3-0.5,1.7c-0.3,0.4-0.8,0.6-1.4,0.6c-0.2,0-0.5,0-0.7-0.1c-0.2-0.1-0.4-0.2-0.5-0.4
			v2.3h-1.3v-6.6h1.2l0.1,0.6c0.1-0.2,0.3-0.4,0.5-0.5s0.4-0.2,0.7-0.2c0.6,0,1,0.2,1.4,0.7C133.7,127.6,133.9,128.2,133.9,129
			L133.9,129z M132.6,128.9c0-0.4-0.1-0.8-0.2-1.1c-0.1-0.3-0.4-0.4-0.7-0.4c-0.2,0-0.4,0-0.5,0.1s-0.2,0.2-0.3,0.3v2.1
			c0.1,0.1,0.2,0.2,0.3,0.3s0.3,0.1,0.5,0.1c0.3,0,0.5-0.1,0.7-0.4C132.5,129.8,132.6,129.4,132.6,128.9L132.6,128.9z"/>
		<path class="st3" d="M137.2,127.6l-0.5,0c-0.2,0-0.3,0-0.5,0.1s-0.2,0.2-0.3,0.3v3.2h-1.3v-4.8h1.2l0.1,0.7
			c0.1-0.2,0.3-0.4,0.4-0.6c0.2-0.1,0.4-0.2,0.6-0.2c0.1,0,0.1,0,0.2,0s0.1,0,0.2,0L137.2,127.6z"/>
		<path class="st3" d="M137.6,128.9c0-0.7,0.2-1.3,0.6-1.7c0.4-0.5,0.9-0.7,1.6-0.7c0.7,0,1.3,0.2,1.7,0.7c0.4,0.5,0.6,1,0.6,1.7
			v0.1c0,0.7-0.2,1.3-0.6,1.7c-0.4,0.4-0.9,0.7-1.6,0.7c-0.7,0-1.3-0.2-1.6-0.7S137.6,129.7,137.6,128.9L137.6,128.9z M138.9,129
			c0,0.4,0.1,0.8,0.2,1s0.4,0.4,0.7,0.4c0.3,0,0.6-0.1,0.7-0.4c0.2-0.3,0.2-0.6,0.2-1v-0.1c0-0.4-0.1-0.8-0.2-1
			c-0.2-0.3-0.4-0.4-0.7-0.4c-0.3,0-0.6,0.1-0.7,0.4C138.9,128.1,138.9,128.4,138.9,129L138.9,129z"/>
		<path class="st3" d="M142.7,128.9c0-0.7,0.2-1.4,0.5-1.8c0.3-0.5,0.8-0.7,1.4-0.7c0.3,0,0.5,0.1,0.7,0.2s0.4,0.3,0.5,0.5l0.1-0.6
			h1.1v4.7c0,0.6-0.2,1.1-0.6,1.4c-0.4,0.3-1,0.5-1.7,0.5c-0.2,0-0.5,0-0.8-0.1c-0.3-0.1-0.5-0.2-0.7-0.3l0.2-1
			c0.2,0.1,0.4,0.2,0.6,0.2s0.4,0.1,0.7,0.1c0.4,0,0.6-0.1,0.8-0.2c0.2-0.1,0.2-0.4,0.2-0.7v-0.4c-0.1,0.2-0.3,0.3-0.5,0.4
			c-0.2,0.1-0.4,0.1-0.7,0.1c-0.6,0-1-0.2-1.4-0.6C142.8,130.3,142.7,129.7,142.7,128.9L142.7,128.9z M143.9,129
			c0,0.4,0.1,0.7,0.2,1s0.4,0.4,0.7,0.4c0.2,0,0.4,0,0.5-0.1c0.1-0.1,0.2-0.2,0.3-0.3v-2.1c-0.1-0.1-0.2-0.3-0.3-0.3
			s-0.3-0.1-0.5-0.1c-0.3,0-0.5,0.1-0.7,0.4C144,128.1,143.9,128.5,143.9,129L143.9,129z"/>
		<path class="st3" d="M150.4,127.6l-0.5,0c-0.2,0-0.3,0-0.5,0.1c-0.1,0.1-0.2,0.2-0.3,0.3v3.2h-1.3v-4.8h1.2l0.1,0.7
			c0.1-0.2,0.3-0.4,0.4-0.6s0.4-0.2,0.6-0.2c0.1,0,0.1,0,0.2,0s0.1,0,0.2,0L150.4,127.6z"/>
		<path class="st3" d="M153.9,131.3c0-0.1-0.1-0.2-0.1-0.3s-0.1-0.2-0.1-0.4c-0.1,0.2-0.3,0.4-0.5,0.6c-0.2,0.2-0.5,0.2-0.8,0.2
			c-0.5,0-0.9-0.1-1.2-0.4s-0.4-0.6-0.4-1c0-0.5,0.2-0.8,0.5-1.1c0.4-0.3,0.9-0.4,1.6-0.4h0.7v-0.4c0-0.2-0.1-0.4-0.2-0.5
			c-0.1-0.1-0.3-0.2-0.5-0.2c-0.2,0-0.4,0.1-0.5,0.2s-0.2,0.2-0.2,0.4h-1.2l0,0c0-0.4,0.2-0.7,0.5-1c0.4-0.3,0.9-0.4,1.5-0.4
			c0.6,0,1,0.1,1.4,0.4c0.4,0.3,0.5,0.7,0.5,1.2v2c0,0.2,0,0.4,0.1,0.6c0,0.2,0.1,0.4,0.2,0.6H153.9z M152.7,130.4
			c0.2,0,0.4-0.1,0.6-0.2c0.2-0.1,0.3-0.2,0.4-0.4v-0.7H153c-0.3,0-0.5,0.1-0.6,0.2c-0.1,0.1-0.2,0.3-0.2,0.5c0,0.2,0.1,0.3,0.2,0.4
			S152.5,130.4,152.7,130.4z"/>
		<path class="st3" d="M157.1,126.5l0.1,0.6c0.2-0.2,0.3-0.4,0.6-0.5c0.2-0.1,0.5-0.2,0.8-0.2c0.3,0,0.6,0.1,0.8,0.2
			c0.2,0.1,0.4,0.3,0.5,0.6c0.1-0.3,0.3-0.5,0.6-0.6c0.2-0.1,0.5-0.2,0.8-0.2c0.5,0,0.8,0.2,1.1,0.5s0.4,0.8,0.4,1.5v2.8h-1.3v-2.8
			c0-0.4-0.1-0.6-0.2-0.8c-0.1-0.1-0.3-0.2-0.5-0.2c-0.2,0-0.3,0-0.5,0.1s-0.2,0.2-0.3,0.3c0,0.1,0,0.1,0,0.1c0,0,0,0.1,0,0.1v3.1
			h-1.3v-2.8c0-0.4-0.1-0.6-0.2-0.8c-0.1-0.2-0.3-0.2-0.5-0.2c-0.2,0-0.3,0-0.5,0.1s-0.2,0.2-0.3,0.3v3.5h-1.3v-4.8H157.1z"/>
		<path class="st3" d="M164.9,126.5l0.1,0.6c0.2-0.2,0.3-0.4,0.6-0.5c0.2-0.1,0.5-0.2,0.8-0.2c0.3,0,0.6,0.1,0.8,0.2
			c0.2,0.1,0.4,0.3,0.5,0.6c0.1-0.3,0.3-0.5,0.6-0.6c0.2-0.1,0.5-0.2,0.8-0.2c0.5,0,0.8,0.2,1.1,0.5c0.3,0.3,0.4,0.8,0.4,1.5v2.8
			h-1.3v-2.8c0-0.4-0.1-0.6-0.2-0.8c-0.1-0.1-0.3-0.2-0.5-0.2c-0.2,0-0.3,0-0.5,0.1s-0.2,0.2-0.3,0.3c0,0.1,0,0.1,0,0.1
			c0,0,0,0.1,0,0.1v3.1h-1.3v-2.8c0-0.4-0.1-0.6-0.2-0.8c-0.1-0.2-0.3-0.2-0.5-0.2c-0.2,0-0.3,0-0.5,0.1s-0.2,0.2-0.3,0.3v3.5h-1.3
			v-4.8H164.9z"/>
		<path class="st3" d="M172.8,125.4h-1.3v-1h1.3V125.4z M172.8,131.3h-1.3v-4.8h1.3V131.3z"/>
		<path class="st3" d="M175.1,126.5l0.1,0.7c0.2-0.2,0.4-0.4,0.6-0.6c0.2-0.1,0.5-0.2,0.8-0.2c0.5,0,0.9,0.2,1.1,0.5
			c0.3,0.3,0.4,0.8,0.4,1.5v2.9h-1.3v-2.9c0-0.3-0.1-0.6-0.2-0.7c-0.1-0.1-0.3-0.2-0.5-0.2c-0.2,0-0.4,0-0.5,0.1
			c-0.1,0.1-0.3,0.2-0.4,0.3v3.4h-1.3v-4.8H175.1z"/>
		<path class="st3" d="M178.8,128.9c0-0.7,0.2-1.4,0.5-1.8c0.3-0.5,0.8-0.7,1.4-0.7c0.3,0,0.5,0.1,0.7,0.2c0.2,0.1,0.4,0.3,0.5,0.5
			l0.1-0.6h1.1v4.7c0,0.6-0.2,1.1-0.6,1.4c-0.4,0.3-1,0.5-1.7,0.5c-0.2,0-0.5,0-0.8-0.1c-0.3-0.1-0.5-0.2-0.7-0.3l0.2-1
			c0.2,0.1,0.4,0.2,0.6,0.2s0.4,0.1,0.7,0.1c0.4,0,0.6-0.1,0.8-0.2c0.2-0.1,0.2-0.4,0.2-0.7v-0.4c-0.1,0.2-0.3,0.3-0.5,0.4
			c-0.2,0.1-0.4,0.1-0.7,0.1c-0.6,0-1-0.2-1.4-0.6C178.9,130.3,178.8,129.7,178.8,128.9L178.8,128.9z M180.1,129
			c0,0.4,0.1,0.7,0.2,1c0.1,0.2,0.4,0.4,0.7,0.4c0.2,0,0.4,0,0.5-0.1c0.1-0.1,0.2-0.2,0.3-0.3v-2.1c-0.1-0.1-0.2-0.3-0.3-0.3
			c-0.1-0.1-0.3-0.1-0.5-0.1c-0.3,0-0.5,0.1-0.7,0.4C180.1,128.1,180.1,128.5,180.1,129L180.1,129z"/>
	</g>
	<g class="st0">
		<path class="st1" d="M185,91.1l0.1,0.9c0.2-0.3,0.5-0.6,0.9-0.8c0.3-0.2,0.7-0.3,1.2-0.3c0.5,0,0.8,0.1,1.2,0.3
			c0.3,0.2,0.6,0.5,0.7,0.9c0.2-0.4,0.5-0.7,0.9-0.9s0.8-0.3,1.2-0.3c0.7,0,1.3,0.2,1.7,0.7c0.4,0.5,0.6,1.3,0.6,2.3v4.2h-1.9V94
			c0-0.6-0.1-1-0.3-1.2c-0.2-0.2-0.4-0.3-0.8-0.3c-0.3,0-0.5,0.1-0.7,0.2c-0.2,0.1-0.4,0.3-0.5,0.5c0,0.1,0,0.2,0,0.2
			c0,0.1,0,0.1,0,0.2v4.7h-1.9V94c0-0.6-0.1-1-0.3-1.2c-0.2-0.2-0.4-0.3-0.8-0.3c-0.3,0-0.5,0-0.7,0.1c-0.2,0.1-0.4,0.2-0.5,0.4v5.2
			h-1.9v-7.1H185z"/>
		<path class="st1" d="M198.1,98.4c-1.1,0-1.9-0.3-2.5-1c-0.6-0.7-0.9-1.5-0.9-2.5v-0.3c0-1.1,0.3-1.9,0.9-2.6c0.6-0.7,1.4-1,2.4-1
			c1,0,1.7,0.3,2.2,0.9c0.5,0.6,0.8,1.4,0.8,2.4v1h-4.3l0,0c0,0.5,0.2,0.9,0.4,1.2c0.3,0.3,0.7,0.5,1.2,0.5c0.4,0,0.8,0,1.1-0.1
			c0.3-0.1,0.6-0.2,0.9-0.4l0.5,1.2c-0.3,0.2-0.7,0.4-1.2,0.6C199.2,98.3,198.6,98.4,198.1,98.4z M197.9,92.5
			c-0.4,0-0.7,0.1-0.9,0.4c-0.2,0.3-0.3,0.6-0.4,1.1l0,0h2.4v-0.1c0-0.4-0.1-0.7-0.3-1C198.6,92.6,198.3,92.5,197.9,92.5z"/>
		<path class="st1" d="M203.8,91.1l0.1,1c0.2-0.4,0.5-0.6,0.9-0.9c0.3-0.2,0.7-0.3,1.2-0.3c0.7,0,1.3,0.2,1.7,0.7
			c0.4,0.5,0.6,1.2,0.6,2.2v4.4h-1.9v-4.4c0-0.5-0.1-0.9-0.3-1.1c-0.2-0.2-0.4-0.3-0.8-0.3c-0.3,0-0.5,0.1-0.8,0.2
			c-0.2,0.1-0.4,0.3-0.5,0.4v5.2H202v-7.1H203.8z"/>
		<path class="st1" d="M212,89.4v1.7h1.2v1.4H212v3.6c0,0.3,0.1,0.5,0.2,0.6c0.1,0.1,0.3,0.2,0.5,0.2c0.1,0,0.2,0,0.3,0
			c0.1,0,0.2,0,0.3-0.1l0.2,1.4c-0.2,0.1-0.4,0.1-0.6,0.1c-0.2,0-0.4,0-0.6,0c-0.7,0-1.2-0.2-1.5-0.5c-0.4-0.4-0.5-0.9-0.5-1.7v-3.6
			h-1v-1.4h1v-1.7H212z"/>
		<path class="st1" d="M214.1,94.6c0-1.1,0.3-1.9,0.9-2.6c0.6-0.7,1.4-1,2.5-1c1.1,0,1.9,0.3,2.5,1c0.6,0.7,0.9,1.6,0.9,2.6v0.1
			c0,1.1-0.3,1.9-0.9,2.6c-0.6,0.7-1.4,1-2.5,1c-1.1,0-1.9-0.3-2.5-1c-0.6-0.7-0.9-1.6-0.9-2.6V94.6z M216,94.8
			c0,0.7,0.1,1.2,0.3,1.6c0.2,0.4,0.6,0.6,1.1,0.6c0.5,0,0.9-0.2,1.1-0.6c0.2-0.4,0.3-0.9,0.3-1.6v-0.1c0-0.6-0.1-1.2-0.3-1.6
			c-0.2-0.4-0.6-0.6-1.1-0.6c-0.5,0-0.9,0.2-1.1,0.6c-0.2,0.4-0.3,0.9-0.3,1.5V94.8z"/>
		<path class="st1" d="M225.8,92.8l-0.7,0c-0.3,0-0.5,0.1-0.7,0.2c-0.2,0.1-0.3,0.3-0.4,0.5v4.8H222v-7.1h1.8l0.1,1.1
			c0.2-0.4,0.4-0.7,0.7-0.9c0.3-0.2,0.6-0.3,0.9-0.3c0.1,0,0.2,0,0.3,0c0.1,0,0.2,0,0.2,0.1L225.8,92.8z"/>
	</g>
</g>
</svg>
